<?xml version="1.0" encoding="UTF-8"?>
<svg width="300px" height="300px" viewBox="0 0 300 300" version="1.1" xmlns="http://www.w3.org/2000/svg" xmlns:xlink="http://www.w3.org/1999/xlink">
    <title>achievement-code_editions-100</title>
    <g id="achievement-code_editions-100" stroke="none" stroke-width="1" fill="none" fill-rule="evenodd">
        <path d="M270,10 L30,10 C19,10 10,19 10,30 L10,270 C10,281 19,290 30,290 L270,290 C281,290 290,281 290,270 L290,30 C290,19 281,10 270,10 Z M270,270 L30,270 L30,30 L270,30 L270,270 Z" id="Shape" stroke-opacity="0.25" stroke="#000000" fill-opacity="0.75" fill="#FF9500" fill-rule="nonzero"></path>
        <g id="shapes" transform="translate(33.000000, 52.000000)" fill="#FF9500" fill-rule="nonzero">
            <polygon id="Path" points="46.125 76.875 0 76.875 0 46.125 46.125 46.125 46.125 0 76.875 0 76.875 46.125 123 46.125 123 76.875 76.875 76.875 76.875 123 46.125 123"></polygon>
            <polygon id="Path" fill-opacity="0.3" transform="translate(28.690657, 36.551262) rotate(72.000000) translate(-28.690657, -36.551262) " points="23.6137186 41.6282007 8.38290319 41.6282007 8.38290319 31.4743238 23.6137186 31.4743238 23.6137186 16.2435084 33.7675955 16.2435084 33.7675955 31.4743238 48.998411 31.4743238 48.998411 41.6282007 33.7675955 41.6282007 33.7675955 56.8590161 23.6137186 56.8590161"></polygon>
        </g>
        <g id="border" transform="translate(33.000000, 52.000000)" fill-rule="nonzero" stroke="#000000" stroke-opacity="0.25">
            <polygon id="Path" points="46.125 76.875 0 76.875 0 46.125 46.125 46.125 46.125 0 76.875 0 76.875 46.125 123 46.125 123 76.875 76.875 76.875 76.875 123 46.125 123"></polygon>
            <polygon id="Path" transform="translate(28.690657, 36.551262) rotate(72.000000) translate(-28.690657, -36.551262) " points="23.6137186 41.6282007 8.38290319 41.6282007 8.38290319 31.4743238 23.6137186 31.4743238 23.6137186 16.2435084 33.7675955 16.2435084 33.7675955 31.4743238 48.998411 31.4743238 48.998411 41.6282007 33.7675955 41.6282007 33.7675955 56.8590161 23.6137186 56.8590161"></polygon>
        </g>
        <g id="shapes" transform="translate(50.000000, 199.158526)" fill="#FF9500" fill-rule="nonzero">
            <polygon id="Path" points="100 37.8414743 0 37.8414743 0 12.8414743 100 12.8414743"></polygon>
            <polygon id="Path" fill-opacity="0.3" transform="translate(28.518678, 8.067131) rotate(-9.000000) translate(-28.518678, -8.067131) " points="48.5186779 13.067131 8.5186779 13.067131 8.5186779 3.067131 48.5186779 3.067131"></polygon>
        </g>
        <g id="border" transform="translate(50.000000, 199.158526)" fill-rule="nonzero" stroke="#000000" stroke-opacity="0.25">
            <polygon id="Path" points="100 37.8414743 0 37.8414743 0 12.8414743 100 12.8414743"></polygon>
            <polygon id="Path" transform="translate(28.518678, 8.067131) rotate(-9.000000) translate(-28.518678, -8.067131) " points="48.5186779 13.067131 8.5186779 13.067131 8.5186779 3.067131 48.5186779 3.067131"></polygon>
        </g>
        <g id="100" transform="translate(216.234375, 148.364258) rotate(-90.000000) translate(-216.234375, -148.364258) translate(138.109375, 111.840820)" fill="#FF9500" fill-rule="nonzero" stroke="#000000" stroke-opacity="0.247633714" stroke-width="2">
            <path d="M29.9082031,1.48828125 L29.9082031,70.2890625 L17.6503906,70.2890625 L17.6503906,21.4609375 L1,21.4609375 L1,13.9422016 C4.97037581,13.7434733 7.78487189,13.4545785 9.44424372,13.0858285 C12.4558954,12.4204636 14.9007977,11.0807685 16.7899168,9.08669793 C18.0919296,7.71430612 19.0893828,5.89052084 19.7612778,3.59177267 C19.9945745,2.76462986 20.1535932,2.06329484 20.2441907,1.48828125 L29.9082031,1.48828125 Z" id="Path"></path>
            <path d="M76.2207031,1 C80.5512745,1 84.2413513,1.74920275 87.283801,3.27433819 C90.2733209,4.77294072 92.6265297,7.02286195 94.345779,10.0161828 C97.8929814,16.2477546 99.6347656,25.1068054 99.6347656,36.5722656 C99.6347656,48.0355522 97.8860031,56.8773525 94.3234268,63.0759156 C92.6105204,66.0562191 90.2637069,68.2936593 87.2790771,69.7840536 C84.2402242,71.3015245 80.5517245,72.046875 76.2207031,72.046875 C71.8896818,72.046875 68.201182,71.3015245 65.1623291,69.7840536 C62.1776993,68.2936593 59.8308858,66.0562191 58.1179794,63.0759156 C54.5554032,56.8773525 52.8066406,48.0355522 52.8066406,36.5722656 C52.8066406,25.1075949 54.5561273,16.2490405 58.1190827,10.017863 C59.832198,7.02183182 62.1791309,4.77238902 65.1641695,3.27410708 C68.2025167,1.74906796 71.8904248,1 76.2207031,1 Z M76.2207031,10.4746094 C73.9077601,10.4746094 71.9957651,11.0678734 70.4693359,12.2126953 C68.9546934,13.3486772 67.8076321,15.0403767 67.066655,17.3175258 C65.7102215,21.4860777 65.015625,27.9020047 65.015625,36.5722656 C65.015625,44.8407876 65.7065087,51.1632116 67.062268,55.5446288 C67.7996447,57.9276146 68.9428862,59.6977981 70.4500706,60.8865001 C71.9816129,62.0944129 73.8999873,62.71875 76.2207031,62.71875 C78.5436963,62.71875 80.4590468,62.0910151 81.9828431,60.8774527 C83.4818281,59.6836503 84.6128139,57.9059994 85.3326279,55.5126178 C86.6228343,51.1458071 87.2792969,44.8354188 87.2792969,36.5722656 C87.2792969,27.9068592 86.6109056,21.49414 85.304796,17.3278158 C84.589778,15.0469988 83.460577,13.3529778 81.9572024,12.2152889 C80.4429303,11.0693533 78.5361733,10.4746094 76.2207031,10.4746094 Z" id="Shape"></path>
            <path d="M131.835938,1 C136.166509,1 139.856586,1.74920275 142.899035,3.27433819 C145.888555,4.77294072 148.241764,7.02286195 149.961013,10.0161828 C153.508216,16.2477546 155.25,25.1068054 155.25,36.5722656 C155.25,48.0355522 153.501237,56.8773525 149.938661,63.0759156 C148.225755,66.0562191 145.878941,68.2936593 142.894311,69.7840536 C139.855459,71.3015245 136.166959,72.046875 131.835938,72.046875 C127.504916,72.046875 123.816416,71.3015245 120.777564,69.7840536 C117.792934,68.2936593 115.44612,66.0562191 113.733214,63.0759156 C110.170638,56.8773525 108.421875,48.0355522 108.421875,36.5722656 C108.421875,25.1075949 110.171362,16.2490405 113.734317,10.017863 C115.447432,7.02183182 117.794365,4.77238902 120.779404,3.27410708 C123.817751,1.74906796 127.505659,1 131.835938,1 Z M131.835938,10.4746094 C129.522994,10.4746094 127.611,11.0678734 126.08457,12.2126953 C124.569928,13.3486772 123.422866,15.0403767 122.681889,17.3175258 C121.325456,21.4860777 120.630859,27.9020047 120.630859,36.5722656 C120.630859,44.8407876 121.321743,51.1632116 122.677502,55.5446288 C123.414879,57.9276146 124.558121,59.6977981 126.065305,60.8865001 C127.596847,62.0944129 129.515222,62.71875 131.835938,62.71875 C134.158931,62.71875 136.074281,62.0910151 137.598078,60.8774527 C139.097062,59.6836503 140.228048,57.9059994 140.947862,55.5126178 C142.238069,51.1458071 142.894531,44.8354188 142.894531,36.5722656 C142.894531,27.9068592 142.22614,21.49414 140.92003,17.3278158 C140.205012,15.0469988 139.075811,13.3529778 137.572437,12.2152889 C136.058165,11.0693533 134.151408,10.4746094 131.835938,10.4746094 Z" id="Shape"></path>
        </g>
    </g>
</svg>