<?xml version="1.0" encoding="UTF-8"?>
<svg width="300px" height="300px" viewBox="0 0 300 300" version="1.1" xmlns="http://www.w3.org/2000/svg" xmlns:xlink="http://www.w3.org/1999/xlink">
    <title>achievement-code_editioins-1000</title>
    <g id="achievement-code_editioins-1000" stroke="none" stroke-width="1" fill="none" fill-rule="evenodd">
        <path d="M270,10 L30,10 C19,10 10,19 10,30 L10,270 C10,281 19,290 30,290 L270,290 C281,290 290,281 290,270 L290,30 C290,19 281,10 270,10 Z M270,270 L30,270 L30,30 L270,30 L270,270 Z" id="Shape" stroke-opacity="0.25" stroke="#000000" fill-opacity="0.75" fill="#E100FF" fill-rule="nonzero"></path>
        <g id="shapes" transform="translate(33.000000, 34.008943)" fill="#E100FF" fill-rule="nonzero">
            <polygon id="Path" stroke-opacity="0.25" stroke="#000000" fill-opacity="0.75" points="46.125 94.8660571 0 94.8660571 0 64.1160571 46.125 64.1160571 46.125 17.9910571 76.875 17.9910571 76.875 64.1160571 123 64.1160571 123 94.8660571 76.875 94.8660571 76.875 140.991057 46.125 140.991057"></polygon>
            <polygon id="Path" fill-opacity="0.3" transform="translate(85.821542, 50.373993) rotate(24.000000) translate(-85.821542, -50.373993) " points="76.2830511 59.9124833 47.6675797 59.9124833 47.6675797 40.8355024 76.2830511 40.8355024 76.2830511 12.220031 95.360032 12.220031 95.360032 40.8355024 123.975503 40.8355024 123.975503 59.9124833 95.360032 59.9124833 95.360032 88.5279547 76.2830511 88.5279547"></polygon>
            <polygon id="Path" fill-opacity="0.3" transform="translate(41.606729, 113.840327) rotate(50.000000) translate(-41.606729, -113.840327) " points="34.3759379 121.071118 12.6835644 121.071118 12.6835644 106.609536 34.3759379 106.609536 34.3759379 84.9171627 48.8375202 84.9171627 48.8375202 106.609536 70.5298937 106.609536 70.5298937 121.071118 48.8375202 121.071118 48.8375202 142.763492 34.3759379 142.763492"></polygon>
            <polygon id="Path" fill-opacity="0.3" transform="translate(101.914604, 121.224965) rotate(106.000000) translate(-101.914604, -121.224965) " points="94.683813 128.455756 72.9914396 128.455756 72.9914396 113.994174 94.683813 113.994174 94.683813 92.3018005 109.145395 92.3018005 109.145395 113.994174 130.837769 113.994174 130.837769 128.455756 109.145395 128.455756 109.145395 150.14813 94.683813 150.14813"></polygon>
            <polygon id="Path" fill-opacity="0.3" transform="translate(28.690657, 54.542319) rotate(72.000000) translate(-28.690657, -54.542319) " points="23.6137186 59.6192578 8.38290319 59.6192578 8.38290319 49.4653809 23.6137186 49.4653809 23.6137186 34.2345655 33.7675955 34.2345655 33.7675955 49.4653809 48.998411 49.4653809 48.998411 59.6192578 33.7675955 59.6192578 33.7675955 74.8500732 23.6137186 74.8500732"></polygon>
        </g>
        <g id="border" transform="translate(33.000000, 34.008943)" fill-rule="nonzero" stroke="#000000" stroke-opacity="0.25">
            <polygon id="Path" points="46.125 94.8660571 0 94.8660571 0 64.1160571 46.125 64.1160571 46.125 17.9910571 76.875 17.9910571 76.875 64.1160571 123 64.1160571 123 94.8660571 76.875 94.8660571 76.875 140.991057 46.125 140.991057"></polygon>
            <polygon id="Path" transform="translate(85.821542, 50.373993) rotate(24.000000) translate(-85.821542, -50.373993) " points="76.2830511 59.9124833 47.6675797 59.9124833 47.6675797 40.8355024 76.2830511 40.8355024 76.2830511 12.220031 95.360032 12.220031 95.360032 40.8355024 123.975503 40.8355024 123.975503 59.9124833 95.360032 59.9124833 95.360032 88.5279547 76.2830511 88.5279547"></polygon>
            <polygon id="Path" transform="translate(41.606729, 113.840327) rotate(50.000000) translate(-41.606729, -113.840327) " points="34.3759379 121.071118 12.6835644 121.071118 12.6835644 106.609536 34.3759379 106.609536 34.3759379 84.9171627 48.8375202 84.9171627 48.8375202 106.609536 70.5298937 106.609536 70.5298937 121.071118 48.8375202 121.071118 48.8375202 142.763492 34.3759379 142.763492"></polygon>
            <polygon id="Path" transform="translate(101.914604, 121.224965) rotate(106.000000) translate(-101.914604, -121.224965) " points="94.683813 128.455756 72.9914396 128.455756 72.9914396 113.994174 94.683813 113.994174 94.683813 92.3018005 109.145395 92.3018005 109.145395 113.994174 130.837769 113.994174 130.837769 128.455756 109.145395 128.455756 109.145395 150.14813 94.683813 150.14813"></polygon>
            <polygon id="Path" transform="translate(28.690657, 54.542319) rotate(72.000000) translate(-28.690657, -54.542319) " points="23.6137186 59.6192578 8.38290319 59.6192578 8.38290319 49.4653809 23.6137186 49.4653809 23.6137186 34.2345655 33.7675955 34.2345655 33.7675955 49.4653809 48.998411 49.4653809 48.998411 59.6192578 33.7675955 59.6192578 33.7675955 74.8500732 23.6137186 74.8500732"></polygon>
        </g>
        <g id="shapes" transform="translate(49.503164, 197.490545)" fill="#E100FF" fill-rule="nonzero">
            <polygon id="Path" stroke-opacity="0.25" stroke="#000000" fill-opacity="0.75" points="100.496836 39.5094549 0.496835926 39.5094549 0.496835926 14.5094549 100.496836 14.5094549"></polygon>
            <polygon id="Path" fill-opacity="0.3" transform="translate(46.349542, 29.898168) rotate(9.000000) translate(-46.349542, -29.898168) " points="88.3495423 40.3981682 4.3495423 40.3981682 4.3495423 19.3981682 88.3495423 19.3981682"></polygon>
            <polygon id="Path" fill-opacity="0.3" transform="translate(65.162914, 18.462186) rotate(-20.000000) translate(-65.162914, -18.462186) " points="97.1629142 26.4621856 33.1629142 26.4621856 33.1629142 10.4621856 97.1629142 10.4621856"></polygon>
            <polygon id="Path" fill-opacity="0.3" transform="translate(29.015514, 9.735112) rotate(-9.000000) translate(-29.015514, -9.735112) " points="49.0155138 14.7351116 9.01551383 14.7351116 9.01551383 4.73511162 49.0155138 4.73511162"></polygon>
            <polygon id="Path" fill-opacity="0.3" transform="translate(22.395640, 39.654595) rotate(-5.000000) translate(-22.395640, -39.654595) " points="44.3956399 45.154595 0.395639943 45.154595 0.395639943 34.154595 44.3956399 34.154595"></polygon>
        </g>
        <g id="border" transform="translate(49.503164, 197.490545)" fill-rule="nonzero" stroke="#000000" stroke-opacity="0.25">
            <polygon id="Path" points="100.496836 39.5094549 0.496835926 39.5094549 0.496835926 14.5094549 100.496836 14.5094549"></polygon>
            <polygon id="Path" transform="translate(46.349542, 29.898168) rotate(9.000000) translate(-46.349542, -29.898168) " points="88.3495423 40.3981682 4.3495423 40.3981682 4.3495423 19.3981682 88.3495423 19.3981682"></polygon>
            <polygon id="Path" transform="translate(65.162914, 18.462186) rotate(-20.000000) translate(-65.162914, -18.462186) " points="97.1629142 26.4621856 33.1629142 26.4621856 33.1629142 10.4621856 97.1629142 10.4621856"></polygon>
            <polygon id="Path" transform="translate(29.015514, 9.735112) rotate(-9.000000) translate(-29.015514, -9.735112) " points="49.0155138 14.7351116 9.01551383 14.7351116 9.01551383 4.73511162 49.0155138 4.73511162"></polygon>
            <polygon id="Path" transform="translate(22.395640, 39.654595) rotate(-5.000000) translate(-22.395640, -39.654595) " points="44.3956399 45.154595 0.395639943 45.154595 0.395639943 34.154595 44.3956399 34.154595"></polygon>
        </g>
        <g id="1000" transform="translate(216.234375, 148.364258) rotate(-90.000000) translate(-216.234375, -148.364258) translate(110.301758, 111.840820)" fill="#FF00FF" fill-rule="nonzero" stroke="#000000" stroke-opacity="0.247633714" stroke-width="2">
            <path d="M29.9082031,1.48828125 L29.9082031,70.2890625 L17.6503906,70.2890625 L17.6503906,21.4609375 L1,21.4609375 L1,13.9422016 C4.97037581,13.7434733 7.78487189,13.4545785 9.44424372,13.0858285 C12.4558954,12.4204636 14.9007977,11.0807685 16.7899168,9.08669793 C18.0919296,7.71430612 19.0893828,5.89052084 19.7612778,3.59177267 C19.9945745,2.76462986 20.1535932,2.06329484 20.2441907,1.48828125 L29.9082031,1.48828125 Z" id="Path"></path>
            <path d="M76.2207031,1 C80.5512745,1 84.2413513,1.74920275 87.283801,3.27433819 C90.2733209,4.77294072 92.6265297,7.02286195 94.345779,10.0161828 C97.8929814,16.2477546 99.6347656,25.1068054 99.6347656,36.5722656 C99.6347656,48.0355522 97.8860031,56.8773525 94.3234268,63.0759156 C92.6105204,66.0562191 90.2637069,68.2936593 87.2790771,69.7840536 C84.2402242,71.3015245 80.5517245,72.046875 76.2207031,72.046875 C71.8896818,72.046875 68.201182,71.3015245 65.1623291,69.7840536 C62.1776993,68.2936593 59.8308858,66.0562191 58.1179794,63.0759156 C54.5554032,56.8773525 52.8066406,48.0355522 52.8066406,36.5722656 C52.8066406,25.1075949 54.5561273,16.2490405 58.1190827,10.017863 C59.832198,7.02183182 62.1791309,4.77238902 65.1641695,3.27410708 C68.2025167,1.74906796 71.8904248,1 76.2207031,1 Z M76.2207031,10.4746094 C73.9077601,10.4746094 71.9957651,11.0678734 70.4693359,12.2126953 C68.9546934,13.3486772 67.8076321,15.0403767 67.066655,17.3175258 C65.7102215,21.4860777 65.015625,27.9020047 65.015625,36.5722656 C65.015625,44.8407876 65.7065087,51.1632116 67.062268,55.5446288 C67.7996447,57.9276146 68.9428862,59.6977981 70.4500706,60.8865001 C71.9816129,62.0944129 73.8999873,62.71875 76.2207031,62.71875 C78.5436963,62.71875 80.4590468,62.0910151 81.9828431,60.8774527 C83.4818281,59.6836503 84.6128139,57.9059994 85.3326279,55.5126178 C86.6228343,51.1458071 87.2792969,44.8354188 87.2792969,36.5722656 C87.2792969,27.9068592 86.6109056,21.49414 85.304796,17.3278158 C84.589778,15.0469988 83.460577,13.3529778 81.9572024,12.2152889 C80.4429303,11.0693533 78.5361733,10.4746094 76.2207031,10.4746094 Z" id="Shape"></path>
            <path d="M131.835938,1 C136.166509,1 139.856586,1.74920275 142.899035,3.27433819 C145.888555,4.77294072 148.241764,7.02286195 149.961013,10.0161828 C153.508216,16.2477546 155.25,25.1068054 155.25,36.5722656 C155.25,48.0355522 153.501237,56.8773525 149.938661,63.0759156 C148.225755,66.0562191 145.878941,68.2936593 142.894311,69.7840536 C139.855459,71.3015245 136.166959,72.046875 131.835938,72.046875 C127.504916,72.046875 123.816416,71.3015245 120.777564,69.7840536 C117.792934,68.2936593 115.44612,66.0562191 113.733214,63.0759156 C110.170638,56.8773525 108.421875,48.0355522 108.421875,36.5722656 C108.421875,25.1075949 110.171362,16.2490405 113.734317,10.017863 C115.447432,7.02183182 117.794365,4.77238902 120.779404,3.27410708 C123.817751,1.74906796 127.505659,1 131.835938,1 Z M131.835938,10.4746094 C129.522994,10.4746094 127.611,11.0678734 126.08457,12.2126953 C124.569928,13.3486772 123.422866,15.0403767 122.681889,17.3175258 C121.325456,21.4860777 120.630859,27.9020047 120.630859,36.5722656 C120.630859,44.8407876 121.321743,51.1632116 122.677502,55.5446288 C123.414879,57.9276146 124.558121,59.6977981 126.065305,60.8865001 C127.596847,62.0944129 129.515222,62.71875 131.835938,62.71875 C134.158931,62.71875 136.074281,62.0910151 137.598078,60.8774527 C139.097062,59.6836503 140.228048,57.9059994 140.947862,55.5126178 C142.238069,51.1458071 142.894531,44.8354188 142.894531,36.5722656 C142.894531,27.9068592 142.22614,21.49414 140.92003,17.3278158 C140.205012,15.0469988 139.075811,13.3529778 137.572437,12.2152889 C136.058165,11.0693533 134.151408,10.4746094 131.835938,10.4746094 Z" id="Shape"></path>
            <path d="M187.451172,1 C191.781743,1 195.47182,1.74920275 198.51427,3.27433819 C201.50379,4.77294072 203.856998,7.02286195 205.576248,10.0161828 C209.12345,16.2477546 210.865234,25.1068054 210.865234,36.5722656 C210.865234,48.0355522 209.116472,56.8773525 205.553896,63.0759156 C203.840989,66.0562191 201.494176,68.2936593 198.509546,69.7840536 C195.470693,71.3015245 191.782193,72.046875 187.451172,72.046875 C183.120151,72.046875 179.431651,71.3015245 176.392798,69.7840536 C173.408168,68.2936593 171.061355,66.0562191 169.348448,63.0759156 C165.785872,56.8773525 164.037109,48.0355522 164.037109,36.5722656 C164.037109,25.1075949 165.786596,16.2490405 169.349551,10.017863 C171.062667,7.02183182 173.4096,4.77238902 176.394638,3.27410708 C179.432985,1.74906796 183.120894,1 187.451172,1 Z M187.451172,10.4746094 C185.138229,10.4746094 183.226234,11.0678734 181.699805,12.2126953 C180.185162,13.3486772 179.038101,15.0403767 178.297124,17.3175258 C176.94069,21.4860777 176.246094,27.9020047 176.246094,36.5722656 C176.246094,44.8407876 176.936977,51.1632116 178.292737,55.5446288 C179.030113,57.9276146 180.173355,59.6977981 181.680539,60.8865001 C183.212082,62.0944129 185.130456,62.71875 187.451172,62.71875 C189.774165,62.71875 191.689516,62.0910151 193.213312,60.8774527 C194.712297,59.6836503 195.843283,57.9059994 196.563097,55.5126178 C197.853303,51.1458071 198.509766,44.8354188 198.509766,36.5722656 C198.509766,27.9068592 197.841374,21.49414 196.535265,17.3278158 C195.820247,15.0469988 194.691046,13.3529778 193.187671,12.2152889 C191.673399,11.0693533 189.766642,10.4746094 187.451172,10.4746094 Z" id="Shape"></path>
        </g>
    </g>
</svg>