<?xml version="1.0" encoding="UTF-8"?>
<svg width="300px" height="300px" viewBox="0 0 300 300" version="1.1" xmlns="http://www.w3.org/2000/svg" xmlns:xlink="http://www.w3.org/1999/xlink">
    <title>achievement-code_editions-500</title>
    <g id="achievement-code_editions-500" stroke="none" stroke-width="1" fill="none" fill-rule="evenodd">
        <path d="M270,10 L30,10 C19,10 10,19 10,30 L10,270 C10,281 19,290 30,290 L270,290 C281,290 290,281 290,270 L290,30 C290,19 281,10 270,10 Z M270,270 L30,270 L30,30 L270,30 L270,270 Z" id="Shape" stroke-opacity="0.25" stroke="#000000" fill-opacity="0.75" fill="#0000FF" fill-rule="nonzero"></path>
        <g id="shapes" transform="translate(33.000000, 52.000000)" fill="#0000FF" fill-rule="nonzero">
            <polygon id="Path" fill-opacity="0.75" points="46.125 76.875 0 76.875 0 46.125 46.125 46.125 46.125 0 76.875 0 76.875 46.125 123 46.125 123 76.875 76.875 76.875 76.875 123 46.125 123"></polygon>
            <polygon id="Path" fill-opacity="0.3" transform="translate(41.606729, 95.849270) rotate(50.000000) translate(-41.606729, -95.849270) " points="34.3759379 103.080061 12.6835644 103.080061 12.6835644 88.6184791 34.3759379 88.6184791 34.3759379 66.9261056 48.8375202 66.9261056 48.8375202 88.6184791 70.5298937 88.6184791 70.5298937 103.080061 48.8375202 103.080061 48.8375202 124.772435 34.3759379 124.772435"></polygon>
            <polygon id="Path" fill-opacity="0.3" transform="translate(101.914604, 103.233908) rotate(106.000000) translate(-101.914604, -103.233908) " points="94.683813 110.464699 72.9914396 110.464699 72.9914396 96.0031169 94.683813 96.0031169 94.683813 74.3107434 109.145395 74.3107434 109.145395 96.0031169 130.837769 96.0031169 130.837769 110.464699 109.145395 110.464699 109.145395 132.157073 94.683813 132.157073"></polygon>
            <polygon id="Path" fill-opacity="0.3" transform="translate(28.690657, 36.551262) rotate(72.000000) translate(-28.690657, -36.551262) " points="23.6137186 41.6282007 8.38290319 41.6282007 8.38290319 31.4743238 23.6137186 31.4743238 23.6137186 16.2435084 33.7675955 16.2435084 33.7675955 31.4743238 48.998411 31.4743238 48.998411 41.6282007 33.7675955 41.6282007 33.7675955 56.8590161 23.6137186 56.8590161"></polygon>
        </g>
        <g id="border" transform="translate(33.000000, 52.000000)" fill-rule="nonzero" stroke="#000000" stroke-opacity="0.25">
            <polygon id="Path" points="46.125 76.875 0 76.875 0 46.125 46.125 46.125 46.125 0 76.875 0 76.875 46.125 123 46.125 123 76.875 76.875 76.875 76.875 123 46.125 123"></polygon>
            <polygon id="Path" transform="translate(41.606729, 95.849270) rotate(50.000000) translate(-41.606729, -95.849270) " points="34.3759379 103.080061 12.6835644 103.080061 12.6835644 88.6184791 34.3759379 88.6184791 34.3759379 66.9261056 48.8375202 66.9261056 48.8375202 88.6184791 70.5298937 88.6184791 70.5298937 103.080061 48.8375202 103.080061 48.8375202 124.772435 34.3759379 124.772435"></polygon>
            <polygon id="Path" transform="translate(101.914604, 103.233908) rotate(106.000000) translate(-101.914604, -103.233908) " points="94.683813 110.464699 72.9914396 110.464699 72.9914396 96.0031169 94.683813 96.0031169 94.683813 74.3107434 109.145395 74.3107434 109.145395 96.0031169 130.837769 96.0031169 130.837769 110.464699 109.145395 110.464699 109.145395 132.157073 94.683813 132.157073"></polygon>
            <polygon id="Path" transform="translate(28.690657, 36.551262) rotate(72.000000) translate(-28.690657, -36.551262) " points="23.6137186 41.6282007 8.38290319 41.6282007 8.38290319 31.4743238 23.6137186 31.4743238 23.6137186 16.2435084 33.7675955 16.2435084 33.7675955 31.4743238 48.998411 31.4743238 48.998411 41.6282007 33.7675955 41.6282007 33.7675955 56.8590161 23.6137186 56.8590161"></polygon>
        </g>
        <g id="shapes" transform="translate(49.503164, 199.158526)" fill="#0000FF" fill-rule="nonzero">
            <polygon id="Path" fill-opacity="0.75" points="100.496836 37.8414743 0.496835926 37.8414743 0.496835926 12.8414743 100.496836 12.8414743"></polygon>
            <polygon id="Path" fill-opacity="0.3" transform="translate(46.349542, 28.230188) rotate(9.000000) translate(-46.349542, -28.230188) " points="88.3495423 38.7301876 4.3495423 38.7301876 4.3495423 17.7301876 88.3495423 17.7301876"></polygon>
            <polygon id="Path" fill-opacity="0.3" transform="translate(29.015514, 8.067131) rotate(-9.000000) translate(-29.015514, -8.067131) " points="49.0155138 13.067131 9.01551383 13.067131 9.01551383 3.067131 49.0155138 3.067131"></polygon>
            <polygon id="Path" fill-opacity="0.3" transform="translate(22.395640, 37.986614) rotate(-5.000000) translate(-22.395640, -37.986614) " points="44.3956399 43.4866144 0.395639943 43.4866144 0.395639943 32.4866144 44.3956399 32.4866144"></polygon>
        </g>
        <g id="border" transform="translate(49.503164, 199.158526)" fill-rule="nonzero" stroke="#000000" stroke-opacity="0.25">
            <polygon id="Path" points="100.496836 37.8414743 0.496835926 37.8414743 0.496835926 12.8414743 100.496836 12.8414743"></polygon>
            <polygon id="Path" transform="translate(46.349542, 28.230188) rotate(9.000000) translate(-46.349542, -28.230188) " points="88.3495423 38.7301876 4.3495423 38.7301876 4.3495423 17.7301876 88.3495423 17.7301876"></polygon>
            <polygon id="Path" transform="translate(29.015514, 8.067131) rotate(-9.000000) translate(-29.015514, -8.067131) " points="49.0155138 13.067131 9.01551383 13.067131 9.01551383 3.067131 49.0155138 3.067131"></polygon>
            <polygon id="Path" transform="translate(22.395640, 37.986614) rotate(-5.000000) translate(-22.395640, -37.986614) " points="44.3956399 43.4866144 0.395639943 43.4866144 0.395639943 32.4866144 44.3956399 32.4866144"></polygon>
        </g>
        <g id="500" transform="translate(216.283203, 150.512695) rotate(-90.000000) translate(-216.283203, -150.512695) translate(136.009766, 113.940430)" fill="#0000FF" fill-rule="nonzero" stroke="#000000" stroke-opacity="0.247633714" stroke-width="2">
            <path d="M45.1914063,2.41601562 L45.1914062,12.2324219 L16.3870011,12.2324219 L13.3366482,30.8278424 C16.3422279,28.7604243 18.5877869,27.4278203 20.0743693,26.8653006 C21.9973931,26.1519208 24.3404445,25.8046875 27.0996094,25.8046875 C32.7029765,25.8046875 37.5901428,27.6884515 41.7614528,31.4550821 C45.9350727,35.2237987 47.9746094,40.7216799 47.9746094,47.9003906 C47.9746094,54.2077365 45.9488849,59.8395835 41.9011691,64.797251 C37.8745323,69.7291006 31.8318998,72.1445312 23.828125,72.1445312 C17.3560539,72.1445312 12.0296435,70.4306849 7.86731452,66.9568615 C3.97060099,63.7047171 1.72896585,59.1581892 1.09502583,53.34375 L13.0488939,53.34375 C13.681256,56.2014112 14.7828129,58.4262779 16.3161954,60.039524 C18.0443686,61.8577062 20.5480461,62.8164062 23.8769531,62.8164062 C27.6902167,62.8164063 30.5742634,61.447876 32.5646287,58.7761244 C34.4891589,56.192746 35.4726562,52.9470572 35.4726562,49.0234375 C35.4726562,45.1844373 34.5572666,41.9491444 32.7606208,39.3060019 C30.8909355,36.5554072 27.997127,35.1328125 24.0234375,35.1328125 C22.2051603,35.1328125 20.6333098,35.3670671 19.3052186,35.8214141 C17.0687625,36.6224234 15.3453363,38.0402425 14.126402,40.085424 L3.32608348,39.5791591 L8.05846879,2.41601562 L45.1914063,2.41601562 Z" id="Path"></path>
            <path d="M80.5175781,1 C84.8481495,1 88.5382263,1.74920275 91.580676,3.27433819 C94.5701959,4.77294072 96.9234047,7.02286195 98.642654,10.0161828 C102.189856,16.2477546 103.931641,25.1068054 103.931641,36.5722656 C103.931641,48.0355522 102.182878,56.8773525 98.6203018,63.0759156 C96.9073954,66.0562191 94.5605819,68.2936593 91.5759521,69.7840536 C88.5370992,71.3015245 84.8485995,72.046875 80.5175781,72.046875 C76.1865568,72.046875 72.498057,71.3015245 69.4592041,69.7840536 C66.4745743,68.2936593 64.1277608,66.0562191 62.4148544,63.0759156 C58.8522782,56.8773525 57.1035156,48.0355522 57.1035156,36.5722656 C57.1035156,25.1075949 58.8530023,16.2490405 62.4159577,10.017863 C64.129073,7.02183182 66.4760059,4.77238902 69.4610445,3.27410708 C72.4993917,1.74906796 76.1872998,1 80.5175781,1 Z M80.5175781,10.4746094 C78.2046351,10.4746094 76.2926401,11.0678734 74.7662109,12.2126953 C73.2515684,13.3486772 72.1045071,15.0403767 71.36353,17.3175258 C70.0070965,21.4860777 69.3125,27.9020047 69.3125,36.5722656 C69.3125,44.8407876 70.0033837,51.1632116 71.359143,55.5446288 C72.0965197,57.9276146 73.2397612,59.6977981 74.7469456,60.8865001 C76.2784879,62.0944129 78.1968623,62.71875 80.5175781,62.71875 C82.8405713,62.71875 84.7559218,62.0910151 86.2797181,60.8774527 C87.7787031,59.6836503 88.9096889,57.9059994 89.6295029,55.5126178 C90.9197093,51.1458071 91.5761719,44.8354188 91.5761719,36.5722656 C91.5761719,27.9068592 90.9077806,21.49414 89.601671,17.3278158 C88.886653,15.0469988 87.757452,13.3529778 86.2540774,12.2152889 C84.7398053,11.0693533 82.8330483,10.4746094 80.5175781,10.4746094 Z" id="Shape"></path>
            <path d="M136.132812,1 C140.463384,1 144.153461,1.74920275 147.19591,3.27433819 C150.18543,4.77294072 152.538639,7.02286195 154.257888,10.0161828 C157.805091,16.2477546 159.546875,25.1068054 159.546875,36.5722656 C159.546875,48.0355522 157.798112,56.8773525 154.235536,63.0759156 C152.52263,66.0562191 150.175816,68.2936593 147.191186,69.7840536 C144.152334,71.3015245 140.463834,72.046875 136.132812,72.046875 C131.801791,72.046875 128.113291,71.3015245 125.074439,69.7840536 C122.089809,68.2936593 119.742995,66.0562191 118.030089,63.0759156 C114.467513,56.8773525 112.71875,48.0355522 112.71875,36.5722656 C112.71875,25.1075949 114.468237,16.2490405 118.031192,10.017863 C119.744307,7.02183182 122.09124,4.77238902 125.076279,3.27410708 C128.114626,1.74906796 131.802534,1 136.132812,1 Z M136.132812,10.4746094 C133.819869,10.4746094 131.907875,11.0678734 130.381445,12.2126953 C128.866803,13.3486772 127.719741,15.0403767 126.978764,17.3175258 C125.622331,21.4860777 124.927734,27.9020047 124.927734,36.5722656 C124.927734,44.8407876 125.618618,51.1632116 126.974377,55.5446288 C127.711754,57.9276146 128.854996,59.6977981 130.36218,60.8865001 C131.893722,62.0944129 133.812097,62.71875 136.132812,62.71875 C138.455806,62.71875 140.371156,62.0910151 141.894953,60.8774527 C143.393937,59.6836503 144.524923,57.9059994 145.244737,55.5126178 C146.534944,51.1458071 147.191406,44.8354188 147.191406,36.5722656 C147.191406,27.9068592 146.523015,21.49414 145.216905,17.3278158 C144.501887,15.0469988 143.372686,13.3529778 141.869312,12.2152889 C140.35504,11.0693533 138.448283,10.4746094 136.132812,10.4746094 Z" id="Shape"></path>
        </g>
    </g>
</svg>