<?xml version="1.0" encoding="UTF-8"?>
<svg width="300px" height="300px" viewBox="0 0 300 300" version="1.1" xmlns="http://www.w3.org/2000/svg" xmlns:xlink="http://www.w3.org/1999/xlink">
    <title>achievement-code_editions-250</title>
    <g id="achievement-code_editions-250" stroke="none" stroke-width="1" fill="none" fill-rule="evenodd">
        <path d="M270,10 L30,10 C19,10 10,19 10,30 L10,270 C10,281 19,290 30,290 L270,290 C281,290 290,281 290,270 L290,30 C290,19 281,10 270,10 Z M270,270 L30,270 L30,30 L270,30 L270,270 Z" id="Shape" stroke-opacity="0.25" stroke="#000000" fill-opacity="0.75" fill="#FF0000" fill-rule="nonzero"></path>
        <g id="shapes" transform="translate(33.000000, 52.000000)" fill="#FF0000" fill-rule="nonzero">
            <polygon id="Path" points="46.125 76.875 0 76.875 0 46.125 46.125 46.125 46.125 0 76.875 0 76.875 46.125 123 46.125 123 76.875 76.875 76.875 76.875 123 46.125 123"></polygon>
            <polygon id="Path" fill-opacity="0.3" transform="translate(41.606729, 95.849270) rotate(50.000000) translate(-41.606729, -95.849270) " points="34.3759379 103.080061 12.6835644 103.080061 12.6835644 88.6184791 34.3759379 88.6184791 34.3759379 66.9261056 48.8375202 66.9261056 48.8375202 88.6184791 70.5298937 88.6184791 70.5298937 103.080061 48.8375202 103.080061 48.8375202 124.772435 34.3759379 124.772435"></polygon>
            <polygon id="Path" fill-opacity="0.3" transform="translate(28.690657, 36.551262) rotate(72.000000) translate(-28.690657, -36.551262) " points="23.6137186 41.6282007 8.38290319 41.6282007 8.38290319 31.4743238 23.6137186 31.4743238 23.6137186 16.2435084 33.7675955 16.2435084 33.7675955 31.4743238 48.998411 31.4743238 48.998411 41.6282007 33.7675955 41.6282007 33.7675955 56.8590161 23.6137186 56.8590161"></polygon>
        </g>
        <g id="border" transform="translate(33.000000, 52.000000)" fill-rule="nonzero" stroke="#000000" stroke-opacity="0.25">
            <polygon id="Path" opacity="0.75" points="46.125 76.875 0 76.875 0 46.125 46.125 46.125 46.125 0 76.875 0 76.875 46.125 123 46.125 123 76.875 76.875 76.875 76.875 123 46.125 123"></polygon>
            <polygon id="Path" transform="translate(41.606729, 95.849270) rotate(50.000000) translate(-41.606729, -95.849270) " points="34.3759379 103.080061 12.6835644 103.080061 12.6835644 88.6184791 34.3759379 88.6184791 34.3759379 66.9261056 48.8375202 66.9261056 48.8375202 88.6184791 70.5298937 88.6184791 70.5298937 103.080061 48.8375202 103.080061 48.8375202 124.772435 34.3759379 124.772435"></polygon>
            <polygon id="Path" transform="translate(28.690657, 36.551262) rotate(72.000000) translate(-28.690657, -36.551262) " points="23.6137186 41.6282007 8.38290319 41.6282007 8.38290319 31.4743238 23.6137186 31.4743238 23.6137186 16.2435084 33.7675955 16.2435084 33.7675955 31.4743238 48.998411 31.4743238 48.998411 41.6282007 33.7675955 41.6282007 33.7675955 56.8590161 23.6137186 56.8590161"></polygon>
        </g>
        <g id="shapes" transform="translate(49.503164, 199.158526)" fill="#FF0000" fill-rule="nonzero">
            <polygon id="Path" opacity="0.75" points="100.496836 37.8414743 0.496835926 37.8414743 0.496835926 12.8414743 100.496836 12.8414743"></polygon>
            <polygon id="Path" fill-opacity="0.3" transform="translate(29.015514, 8.067131) rotate(-9.000000) translate(-29.015514, -8.067131) " points="49.0155138 13.067131 9.01551383 13.067131 9.01551383 3.067131 49.0155138 3.067131"></polygon>
            <polygon id="Path" fill-opacity="0.3" transform="translate(22.395640, 37.986614) rotate(-5.000000) translate(-22.395640, -37.986614) " points="44.3956399 43.4866144 0.395639943 43.4866144 0.395639943 32.4866144 44.3956399 32.4866144"></polygon>
        </g>
        <g id="border" transform="translate(49.503164, 199.158526)" fill-rule="nonzero" stroke="#000000" stroke-opacity="0.25">
            <polygon id="Path" points="100.496836 37.8414743 0.496835926 37.8414743 0.496835926 12.8414743 100.496836 12.8414743"></polygon>
            <polygon id="Path" transform="translate(29.015514, 8.067131) rotate(-9.000000) translate(-29.015514, -8.067131) " points="49.0155138 13.067131 9.01551383 13.067131 9.01551383 3.067131 49.0155138 3.067131"></polygon>
            <polygon id="Path" transform="translate(22.395640, 37.986614) rotate(-5.000000) translate(-22.395640, -37.986614) " points="44.3956399 43.4866144 0.395639943 43.4866144 0.395639943 32.4866144 44.3956399 32.4866144"></polygon>
        </g>
        <g id="250" transform="translate(216.283203, 150.268555) rotate(-90.000000) translate(-216.283203, -150.268555) translate(136.253906, 113.696289)" fill="#FF0000" fill-rule="nonzero" stroke="#000000" stroke-opacity="0.247633714" stroke-width="2">
            <path d="M23.828125,1.14648438 C31.0190367,1.14648438 36.7576223,3.11005568 41.0152776,7.10160752 C45.2463766,11.0682628 47.3398438,16.3250814 47.3398438,22.8515625 C47.3398438,27.863297 45.8479468,32.3157744 42.8558118,36.2118097 C40.8507871,38.8533503 37.5485363,41.7882624 32.9657147,45.034429 L27.3994417,48.9894124 C23.880084,51.4891432 21.4720023,53.2996017 20.1728252,54.4178807 C18.3790281,55.9619086 16.9574348,57.8335062 15.9086727,60.0332031 L47.4863281,60.0332031 L47.4863281,70.2890625 L1.03969857,70.2890625 C1.27774946,65.7615251 2.31909815,61.6019303 4.17005189,57.8118822 C6.12718871,53.163727 10.7268855,48.3265487 17.9160032,43.1959878 C24.4055262,38.5512023 28.5994346,35.2178323 30.514933,33.2032168 C33.6070941,29.9025954 35.1308594,26.2838785 35.1308594,22.3632813 C35.1308594,19.1063813 34.2105086,16.4073211 32.4078144,14.2511575 C30.5689976,12.0517884 27.9501265,10.9140625 24.5117188,10.9140625 C22.2020376,10.9140625 20.2668584,11.3606928 18.6966592,12.2211974 C17.0762617,13.1092119 15.8304101,14.4369871 14.9683719,16.2160914 C14.1217858,17.9719738 13.5698489,20.675968 13.3550573,24.3417969 L1.82908344,24.3417969 C2.12928102,18.9752433 3.15544735,14.5941239 4.93800632,11.2072612 C6.69499872,7.8628108 9.13003047,5.34965263 12.252067,3.67685777 C15.4187698,1.98013059 19.280229,1.14648438 23.828125,1.14648438 Z" id="Path"></path>
            <path d="M100.318359,2.41601563 L100.318359,12.2324219 L71.5139542,12.2324219 L68.4636013,30.8278424 C71.469181,28.7604243 73.71474,27.4278203 75.2013224,26.8653006 C77.1243462,26.1519208 79.4673976,25.8046875 82.2265625,25.8046875 C87.8299296,25.8046875 92.7170959,27.6884515 96.8884059,31.4550821 C101.062026,35.2237987 103.101562,40.7216799 103.101562,47.9003906 C103.101562,54.2077365 101.075838,59.8395835 97.0281222,64.797251 C93.0014854,69.7291006 86.9588529,72.1445313 78.9550781,72.1445313 C72.4830071,72.1445313 67.1565966,70.4306849 62.9942676,66.9568615 C59.0975541,63.7047171 56.855919,59.1581892 56.221979,53.34375 L68.175847,53.34375 C68.8082091,56.2014112 69.9097661,58.4262779 71.4431485,60.039524 C73.1713217,61.8577062 75.6749992,62.8164063 79.0039062,62.8164063 C82.8171698,62.8164063 85.7012165,61.447876 87.6915818,58.7761244 C89.616112,56.192746 90.5996094,52.9470572 90.5996094,49.0234375 C90.5996094,45.1844373 89.6842198,41.9491444 87.8875739,39.3060019 C86.0178886,36.5554072 83.1240801,35.1328125 79.1503906,35.1328125 C77.3321134,35.1328125 75.760263,35.3670671 74.4321717,35.8214141 C72.1957157,36.6224234 70.4722894,38.0402425 69.2533551,40.085424 L58.4530366,39.5791591 L63.1854219,2.41601563 L100.318359,2.41601563 Z" id="Path"></path>
            <path d="M135.644531,1 C139.975103,1 143.665179,1.74920275 146.707629,3.27433819 C149.697149,4.77294072 152.050358,7.02286195 153.769607,10.0161828 C157.31681,16.2477546 159.058594,25.1068054 159.058594,36.5722656 C159.058594,48.0355522 157.309831,56.8773525 153.747255,63.0759156 C152.034349,66.0562191 149.687535,68.2936593 146.702905,69.7840536 C143.664052,71.3015245 139.975553,72.046875 135.644531,72.046875 C131.31351,72.046875 127.62501,71.3015245 124.586157,69.7840536 C121.601527,68.2936593 119.254714,66.0562191 117.541808,63.0759156 C113.979231,56.8773525 112.230469,48.0355522 112.230469,36.5722656 C112.230469,25.1075949 113.979955,16.2490405 117.542911,10.017863 C119.256026,7.02183182 121.602959,4.77238902 124.587998,3.27410708 C127.626345,1.74906796 131.314253,1 135.644531,1 Z M135.644531,10.4746094 C133.331588,10.4746094 131.419593,11.0678734 129.893164,12.2126953 C128.378522,13.3486772 127.23146,15.0403767 126.490483,17.3175258 C125.13405,21.4860777 124.439453,27.9020047 124.439453,36.5722656 C124.439453,44.8407876 125.130337,51.1632116 126.486096,55.5446288 C127.223473,57.9276146 128.366714,59.6977981 129.873899,60.8865001 C131.405441,62.0944129 133.323815,62.71875 135.644531,62.71875 C137.967524,62.71875 139.882875,62.0910151 141.406671,60.8774527 C142.905656,59.6836503 144.036642,57.9059994 144.756456,55.5126178 C146.046662,51.1458071 146.703125,44.8354188 146.703125,36.5722656 C146.703125,27.9068592 146.034734,21.49414 144.728624,17.3278158 C144.013606,15.0469988 142.884405,13.3529778 141.381031,12.2152889 C139.866758,11.0693533 137.960001,10.4746094 135.644531,10.4746094 Z" id="Shape"></path>
        </g>
    </g>
</svg>