<?xml version="1.0" encoding="UTF-8"?>
<svg width="300px" height="300px" viewBox="0 0 300 300" version="1.1" xmlns="http://www.w3.org/2000/svg" xmlns:xlink="http://www.w3.org/1999/xlink">
    <title>achievement-comments-25</title>
    <g id="achievement-comments-25" stroke="none" stroke-width="1" fill="none" fill-rule="evenodd">
        <g id="shapes" transform="translate(5.000000, 10.000000)" fill="#FF9500" fill-opacity="0.5" fill-rule="nonzero">
            <path d="M262.428571,14 L27.5714286,14 C16.8071429,14 8,22.817301 8,33.5940023 L8,190.346021 C8,201.122722 16.8071429,209.940023 27.5714286,209.940023 L66.7142857,209.940023 L66.7142857,278.519031 L135.214286,209.940023 L262.428571,209.940023 C273.192857,209.940023 282,201.122722 282,190.346021 L282,33.5940023 C282,22.817301 273.192857,14 262.428571,14 Z M262.428571,190.346021 L125.428571,190.346021 L86.2857143,229.534025 L86.2857143,190.346021 L27.5714286,190.346021 L27.5714286,33.5940023 L262.428571,33.5940023 L262.428571,190.346021 Z" id="Shape"></path>
            <path d="M268.357143,0 L20.6428571,0 C9.28928571,0 0,9.3 0,20.6666667 L0,186 C0,197.366667 9.28928571,206.666667 20.6428571,206.666667 L61.9285714,206.666667 L61.9285714,279 L134.178571,206.666667 L268.357143,206.666667 C279.710714,206.666667 289,197.366667 289,186 L289,20.6666667 C289,9.3 279.710714,0 268.357143,0 Z M268.357143,186 L123.857143,186 L82.5714286,227.333333 L82.5714286,186 L20.6428571,186 L20.6428571,20.6666667 L268.357143,20.6666667 L268.357143,186 Z" id="Shape"></path>
        </g>
        <g id="border" transform="translate(5.000000, 10.000000)" fill-rule="nonzero" stroke="#000000" stroke-opacity="0.25">
            <path d="M262.428571,14 L27.5714286,14 C16.8071429,14 8,22.817301 8,33.5940023 L8,190.346021 C8,201.122722 16.8071429,209.940023 27.5714286,209.940023 L66.7142857,209.940023 L66.7142857,278.519031 L135.214286,209.940023 L262.428571,209.940023 C273.192857,209.940023 282,201.122722 282,190.346021 L282,33.5940023 C282,22.817301 273.192857,14 262.428571,14 Z M262.428571,190.346021 L125.428571,190.346021 L86.2857143,229.534025 L86.2857143,190.346021 L27.5714286,190.346021 L27.5714286,33.5940023 L262.428571,33.5940023 L262.428571,190.346021 Z" id="Shape"></path>
            <path d="M268.357143,0 L20.6428571,0 C9.28928571,0 0,9.3 0,20.6666667 L0,186 C0,197.366667 9.28928571,206.666667 20.6428571,206.666667 L61.9285714,206.666667 L61.9285714,279 L134.178571,206.666667 L268.357143,206.666667 C279.710714,206.666667 289,197.366667 289,186 L289,20.6666667 C289,9.3 279.710714,0 268.357143,0 Z M268.357143,186 L123.857143,186 L82.5714286,227.333333 L82.5714286,186 L20.6428571,186 L20.6428571,20.6666667 L268.357143,20.6666667 L268.357143,186 Z" id="Shape"></path>
        </g>
        <g id="25" transform="translate(96.509766, 86.857422)" fill="#FF9500" fill-rule="nonzero" stroke="#000000" stroke-opacity="0.247633714" stroke-width="2">
            <path d="M23.828125,1 C31.0190367,1 36.7576223,2.9635713 41.0152776,6.95512314 C45.2463766,10.9217785 47.3398437,16.178597 47.3398438,22.7050781 C47.3398438,27.7168126 45.8479468,32.16929 42.8558118,36.0653254 C40.8507871,38.706866 37.5485363,41.641778 32.9657147,44.8879446 L27.3994417,48.8429281 C23.880084,51.3426588 21.4720023,53.1531173 20.1728252,54.2713963 C18.3790281,55.8154242 16.9574348,57.6870219 15.9086727,59.8867188 L47.4863281,59.8867188 L47.4863281,70.1425781 L1.03969857,70.1425781 C1.27774946,65.6150407 2.31909815,61.4554459 4.17005189,57.6653978 C6.12718871,53.0172426 10.7268855,48.1800643 17.9160032,43.0495034 C22.3728599,39.8595705 25.7434176,37.2937043 28.0330032,35.349993 L28.4917023,34.9563221 C29.3253809,34.2326092 29.9976829,33.6007765 30.514933,33.0567324 C33.6070941,29.756111 35.1308594,26.1373942 35.1308594,22.2167969 C35.1308594,18.9598969 34.2105086,16.2608367 32.4078144,14.1046731 C30.5689976,11.905304 27.9501265,10.7675781 24.5117188,10.7675781 C22.2020376,10.7675781 20.2668584,11.2142084 18.6966592,12.074713 C17.0762617,12.9627275 15.8304101,14.2905027 14.9683719,16.0696071 C14.1217858,17.8254894 13.5698489,20.5294837 13.3550573,24.1953125 L1.82908344,24.1953125 C2.12928102,18.828759 3.15544735,14.4476395 4.93800632,11.0607769 C6.69499872,7.71632642 9.13003047,5.20316825 12.252067,3.53037339 C15.4187698,1.83364621 19.280229,1 23.828125,1 Z" id="Path"></path>
            <path d="M100.318359,2.26953125 L100.318359,12.0859375 L71.5139542,12.0859375 L68.4636013,30.681358 C71.469181,28.61394 73.71474,27.281336 75.2013224,26.7188162 C77.1243462,26.0054364 79.4673976,25.6582031 82.2265625,25.6582031 C87.8299296,25.6582031 92.7170959,27.5419671 96.8884059,31.3085978 C101.062026,35.0773143 103.101562,40.5751955 103.101562,47.7539062 C103.101562,54.0612521 101.075838,59.6930991 97.0281222,64.6507666 C93.0014854,69.5826163 86.9588529,71.9980469 78.9550781,71.9980469 C72.4830071,71.9980469 67.1565966,70.2842005 62.9942676,66.8103771 C59.0975541,63.5582327 56.855919,59.0117048 56.221979,53.1972656 L68.175847,53.1972656 C68.8082091,56.0549268 69.9097661,58.2797935 71.4431485,59.8930396 C73.1713217,61.7112218 75.6749992,62.6699219 79.0039062,62.6699219 C82.8171698,62.6699219 85.7012165,61.3013916 87.6915818,58.62964 C89.616112,56.0462616 90.5996094,52.8005729 90.5996094,48.8769531 C90.5996094,45.0379529 89.6842198,41.80266 87.8875739,39.1595175 C86.0178886,36.4089228 83.1240801,34.9863281 79.1503906,34.9863281 C77.3321134,34.9863281 75.760263,35.2205828 74.4321717,35.6749298 C72.1957157,36.4759391 70.4722894,37.8937582 69.2533551,39.9389396 L58.4530366,39.4326747 L63.1854219,2.26953125 L100.318359,2.26953125 Z" id="Path"></path>
        </g>
    </g>
</svg>