<?xml version="1.0" encoding="UTF-8"?>
<svg width="300px" height="300px" viewBox="0 0 300 300" version="1.1" xmlns="http://www.w3.org/2000/svg" xmlns:xlink="http://www.w3.org/1999/xlink">
    <title>achievement-commit-1</title>
    <g id="achievement-commit-1" stroke="none" stroke-width="1" fill="none" fill-rule="evenodd" fill-opacity="0.75" stroke-opacity="0.25">
        <path d="M232.714286,128.285714 C223.071429,91.4285714 189.857143,64 150,64 C110.142857,64 76.9285714,91.4285714 67.2857143,128.285714 L0,128.285714 L0,171.142857 L67.2857143,171.142857 C76.9285714,208 110.142857,235.428571 150,235.428571 C189.857143,235.428571 223.071429,208 232.714286,171.142857 L300,171.142857 L300,128.285714 L232.714286,128.285714 Z M150,196.857143 C123.857143,196.857143 102.857143,175.857143 102.857143,149.714286 C102.857143,123.571429 123.857143,102.571429 150,102.571429 C176.142857,102.571429 197.142857,123.571429 197.142857,149.714286 C197.142857,175.857143 176.142857,196.857143 150,196.857143 L150,196.857143 Z" id="Shape" stroke="#000000" fill="#07A700" fill-rule="nonzero"></path>
    </g>
</svg>