<?xml version="1.0" encoding="UTF-8"?>
<svg width="300px" height="300px" viewBox="0 0 300 300" version="1.1" xmlns="http://www.w3.org/2000/svg" xmlns:xlink="http://www.w3.org/1999/xlink">
    <title>achievement-commits-200</title>
    <g id="achievement-commits-200" stroke="none" stroke-width="1" fill="none" fill-rule="evenodd">
        <g id="shapes" transform="translate(0.000000, 80.000000)" fill="#E100FF" fill-opacity="0.3" fill-rule="nonzero">
            <path d="M232.714286,74.2857143 C223.071429,37.4285714 189.857143,10 150,10 C110.142857,10 76.9285714,37.4285714 67.2857143,74.2857143 L0,74.2857143 L0,117.142857 L67.2857143,117.142857 C76.9285714,154 110.142857,181.428571 150,181.428571 C189.857143,181.428571 223.071429,154 232.714286,117.142857 L300,117.142857 L300,74.2857143 L232.714286,74.2857143 Z M150,142.857143 C123.857143,142.857143 102.857143,121.857143 102.857143,95.7142857 C102.857143,69.5714286 123.857143,48.5714286 150,48.5714286 C176.142857,48.5714286 197.142857,69.5714286 197.142857,95.7142857 C197.142857,121.857143 176.142857,142.857143 150,142.857143 L150,142.857143 Z" id="Shape"></path>
            <path d="M232.714286,64.2857143 C223.071429,27.4285714 189.857143,0 150,0 C110.142857,0 76.9285714,27.4285714 67.2857143,64.2857143 L0,64.2857143 L0,107.142857 L67.2857143,107.142857 C76.9285714,144 110.142857,171.428571 150,171.428571 C189.857143,171.428571 223.071429,144 232.714286,107.142857 L300,107.142857 L300,64.2857143 L232.714286,64.2857143 Z M150,132.857143 C123.857143,132.857143 102.857143,111.857143 102.857143,85.7142857 C102.857143,59.5714286 123.857143,38.5714286 150,38.5714286 C176.142857,38.5714286 197.142857,59.5714286 197.142857,85.7142857 C197.142857,111.857143 176.142857,132.857143 150,132.857143 L150,132.857143 Z" id="Shape"></path>
            <path d="M232.714286,84.2857143 C223.071429,47.4285714 189.857143,20 150,20 C110.142857,20 76.9285714,47.4285714 67.2857143,84.2857143 L0,84.2857143 L0,127.142857 L67.2857143,127.142857 C76.9285714,164 110.142857,191.428571 150,191.428571 C189.857143,191.428571 223.071429,164 232.714286,127.142857 L300,127.142857 L300,84.2857143 L232.714286,84.2857143 Z M150,152.857143 C123.857143,152.857143 102.857143,131.857143 102.857143,105.714286 C102.857143,79.5714286 123.857143,58.5714286 150,58.5714286 C176.142857,58.5714286 197.142857,79.5714286 197.142857,105.714286 C197.142857,131.857143 176.142857,152.857143 150,152.857143 L150,152.857143 Z" id="Shape"></path>
            <path d="M232.714286,94.2857143 C223.071429,57.4285714 189.857143,30 150,30 C110.142857,30 76.9285714,57.4285714 67.2857143,94.2857143 L0,94.2857143 L0,137.142857 L67.2857143,137.142857 C76.9285714,174 110.142857,201.428571 150,201.428571 C189.857143,201.428571 223.071429,174 232.714286,137.142857 L300,137.142857 L300,94.2857143 L232.714286,94.2857143 Z M150,162.857143 C123.857143,162.857143 102.857143,141.857143 102.857143,115.714286 C102.857143,89.5714286 123.857143,68.5714286 150,68.5714286 C176.142857,68.5714286 197.142857,89.5714286 197.142857,115.714286 C197.142857,141.857143 176.142857,162.857143 150,162.857143 L150,162.857143 Z" id="Shape"></path>
            <path d="M232.714286,104.285714 C223.071429,67.4285714 189.857143,40 150,40 C110.142857,40 76.9285714,67.4285714 67.2857143,104.285714 L0,104.285714 L0,147.142857 L67.2857143,147.142857 C76.9285714,184 110.142857,211.428571 150,211.428571 C189.857143,211.428571 223.071429,184 232.714286,147.142857 L300,147.142857 L300,104.285714 L232.714286,104.285714 Z M150,172.857143 C123.857143,172.857143 102.857143,151.857143 102.857143,125.714286 C102.857143,99.5714286 123.857143,78.5714286 150,78.5714286 C176.142857,78.5714286 197.142857,99.5714286 197.142857,125.714286 C197.142857,151.857143 176.142857,172.857143 150,172.857143 L150,172.857143 Z" id="Shape"></path>
        </g>
        <g id="borders" transform="translate(0.000000, 80.000000)" fill-rule="nonzero" stroke="#000000" stroke-opacity="0.25">
            <path d="M232.714286,74.2857143 C223.071429,37.4285714 189.857143,10 150,10 C110.142857,10 76.9285714,37.4285714 67.2857143,74.2857143 L0,74.2857143 L0,117.142857 L67.2857143,117.142857 C76.9285714,154 110.142857,181.428571 150,181.428571 C189.857143,181.428571 223.071429,154 232.714286,117.142857 L300,117.142857 L300,74.2857143 L232.714286,74.2857143 Z M150,142.857143 C123.857143,142.857143 102.857143,121.857143 102.857143,95.7142857 C102.857143,69.5714286 123.857143,48.5714286 150,48.5714286 C176.142857,48.5714286 197.142857,69.5714286 197.142857,95.7142857 C197.142857,121.857143 176.142857,142.857143 150,142.857143 L150,142.857143 Z" id="Shape"></path>
            <path d="M232.714286,64.2857143 C223.071429,27.4285714 189.857143,0 150,0 C110.142857,0 76.9285714,27.4285714 67.2857143,64.2857143 L0,64.2857143 L0,107.142857 L67.2857143,107.142857 C76.9285714,144 110.142857,171.428571 150,171.428571 C189.857143,171.428571 223.071429,144 232.714286,107.142857 L300,107.142857 L300,64.2857143 L232.714286,64.2857143 Z M150,132.857143 C123.857143,132.857143 102.857143,111.857143 102.857143,85.7142857 C102.857143,59.5714286 123.857143,38.5714286 150,38.5714286 C176.142857,38.5714286 197.142857,59.5714286 197.142857,85.7142857 C197.142857,111.857143 176.142857,132.857143 150,132.857143 L150,132.857143 Z" id="Shape"></path>
            <path d="M232.714286,84.2857143 C223.071429,47.4285714 189.857143,20 150,20 C110.142857,20 76.9285714,47.4285714 67.2857143,84.2857143 L0,84.2857143 L0,127.142857 L67.2857143,127.142857 C76.9285714,164 110.142857,191.428571 150,191.428571 C189.857143,191.428571 223.071429,164 232.714286,127.142857 L300,127.142857 L300,84.2857143 L232.714286,84.2857143 Z M150,152.857143 C123.857143,152.857143 102.857143,131.857143 102.857143,105.714286 C102.857143,79.5714286 123.857143,58.5714286 150,58.5714286 C176.142857,58.5714286 197.142857,79.5714286 197.142857,105.714286 C197.142857,131.857143 176.142857,152.857143 150,152.857143 L150,152.857143 Z" id="Shape"></path>
            <path d="M232.714286,94.2857143 C223.071429,57.4285714 189.857143,30 150,30 C110.142857,30 76.9285714,57.4285714 67.2857143,94.2857143 L0,94.2857143 L0,137.142857 L67.2857143,137.142857 C76.9285714,174 110.142857,201.428571 150,201.428571 C189.857143,201.428571 223.071429,174 232.714286,137.142857 L300,137.142857 L300,94.2857143 L232.714286,94.2857143 Z M150,162.857143 C123.857143,162.857143 102.857143,141.857143 102.857143,115.714286 C102.857143,89.5714286 123.857143,68.5714286 150,68.5714286 C176.142857,68.5714286 197.142857,89.5714286 197.142857,115.714286 C197.142857,141.857143 176.142857,162.857143 150,162.857143 L150,162.857143 Z" id="Shape"></path>
            <path d="M232.714286,104.285714 C223.071429,67.4285714 189.857143,40 150,40 C110.142857,40 76.9285714,67.4285714 67.2857143,104.285714 L0,104.285714 L0,147.142857 L67.2857143,147.142857 C76.9285714,184 110.142857,211.428571 150,211.428571 C189.857143,211.428571 223.071429,184 232.714286,147.142857 L300,147.142857 L300,104.285714 L232.714286,104.285714 Z M150,172.857143 C123.857143,172.857143 102.857143,151.857143 102.857143,125.714286 C102.857143,99.5714286 123.857143,78.5714286 150,78.5714286 C176.142857,78.5714286 197.142857,99.5714286 197.142857,125.714286 C197.142857,151.857143 176.142857,172.857143 150,172.857143 L150,172.857143 Z" id="Shape"></path>
        </g>
        <g id="200" transform="translate(136.279297, 4.710938)" fill="#FF00FF" fill-rule="nonzero" stroke="#000000" stroke-opacity="0.247633714" stroke-width="2">
            <path d="M23.828125,1.14648438 C31.0190367,1.14648438 36.7576223,3.11005568 41.0152776,7.10160752 C45.2463766,11.0682628 47.3398437,16.3250814 47.3398438,22.8515625 C47.3398438,27.863297 45.8479468,32.3157744 42.8558118,36.2118097 C40.8507871,38.8533503 37.5485363,41.7882624 32.9657147,45.034429 L27.3994417,48.9894124 C23.880084,51.4891432 21.4720023,53.2996017 20.1728252,54.4178807 C18.3790281,55.9619086 16.9574348,57.8335062 15.9086727,60.0332031 L47.4863281,60.0332031 L47.4863281,70.2890625 L1.03969857,70.2890625 C1.27774946,65.7615251 2.31909815,61.6019303 4.17005189,57.8118822 C6.12718871,53.163727 10.7268855,48.3265487 17.9160032,43.1959878 C24.4055262,38.5512023 28.5994346,35.2178323 30.514933,33.2032168 C33.6070941,29.9025954 35.1308594,26.2838785 35.1308594,22.3632812 C35.1308594,19.1063813 34.2105086,16.4073211 32.4078144,14.2511575 C30.5689976,12.0517884 27.9501265,10.9140625 24.5117188,10.9140625 C22.2020376,10.9140625 20.2668584,11.3606928 18.6966592,12.2211974 C17.0762617,13.1092119 15.8304101,14.4369871 14.9683719,16.2160914 C14.1217858,17.9719738 13.5698489,20.675968 13.3550573,24.3417969 L1.82908344,24.3417969 C2.12928102,18.9752433 3.15544735,14.5941239 4.93800632,11.2072612 C6.69499872,7.8628108 9.13003047,5.34965263 12.252067,3.67685777 C15.4187698,1.98013059 19.280229,1.14648438 23.828125,1.14648438 Z" id="Path"></path>
            <path d="M80.0292969,1 C84.3598682,1 88.0499451,1.74920275 91.0923947,3.27433819 C94.0819147,4.77294072 96.4351235,7.02286195 98.1543728,10.0161828 C101.701575,16.2477546 103.443359,25.1068054 103.443359,36.5722656 C103.443359,48.0355522 101.694597,56.8773525 98.1320206,63.0759156 C96.4191142,66.0562191 94.0723007,68.2936593 91.0876709,69.7840536 C88.048818,71.3015245 84.3603182,72.046875 80.0292969,72.046875 C75.6982755,72.046875 72.0097758,71.3015245 68.9709229,69.7840536 C65.9862931,68.2936593 63.6394796,66.0562191 61.9265732,63.0759156 C58.3639969,56.8773525 56.6152344,48.0355522 56.6152344,36.5722656 C56.6152344,25.1075949 58.3647211,16.2490405 61.9276764,10.017863 C63.6407917,7.02183182 65.9877246,4.77238902 68.9727633,3.27410708 C72.0111104,1.74906796 75.6990185,1 80.0292969,1 Z M80.0292969,10.4746094 C77.7163538,10.4746094 75.8043589,11.0678734 74.2779297,12.2126953 C72.7632872,13.3486772 71.6162259,15.0403767 70.8752488,17.3175258 C69.5188152,21.4860777 68.8242187,27.9020047 68.8242187,36.5722656 C68.8242187,44.8407876 69.5151025,51.1632116 70.8708617,55.5446288 C71.6082385,57.9276146 72.7514799,59.6977981 74.2586643,60.8865001 C75.7902066,62.0944129 77.7085811,62.71875 80.0292969,62.71875 C82.35229,62.71875 84.2676406,62.0910151 85.7914369,60.8774527 C87.2904219,59.6836503 88.4214076,57.9059994 89.1412216,55.5126178 C90.431428,51.1458071 91.0878906,44.8354188 91.0878906,36.5722656 C91.0878906,27.9068592 90.4194993,21.49414 89.1133898,17.3278158 C88.3983717,15.0469988 87.2691708,13.3529778 85.7657962,12.2152889 C84.2515241,11.0693533 82.3447671,10.4746094 80.0292969,10.4746094 Z" id="Shape"></path>
            <path d="M135.644531,1 C139.975103,1 143.665179,1.74920275 146.707629,3.27433819 C149.697149,4.77294072 152.050358,7.02286195 153.769607,10.0161828 C157.31681,16.2477546 159.058594,25.1068054 159.058594,36.5722656 C159.058594,48.0355522 157.309831,56.8773525 153.747255,63.0759156 C152.034349,66.0562191 149.687535,68.2936593 146.702905,69.7840536 C143.664052,71.3015245 139.975553,72.046875 135.644531,72.046875 C131.31351,72.046875 127.62501,71.3015245 124.586157,69.7840536 C121.601527,68.2936593 119.254714,66.0562191 117.541808,63.0759156 C113.979231,56.8773525 112.230469,48.0355522 112.230469,36.5722656 C112.230469,25.1075949 113.979955,16.2490405 117.542911,10.017863 C119.256026,7.02183182 121.602959,4.77238902 124.587998,3.27410708 C127.626345,1.74906796 131.314253,1 135.644531,1 Z M135.644531,10.4746094 C133.331588,10.4746094 131.419593,11.0678734 129.893164,12.2126953 C128.378522,13.3486772 127.23146,15.0403767 126.490483,17.3175258 C125.13405,21.4860777 124.439453,27.9020047 124.439453,36.5722656 C124.439453,44.8407876 125.130337,51.1632116 126.486096,55.5446288 C127.223473,57.9276146 128.366714,59.6977981 129.873899,60.8865001 C131.405441,62.0944129 133.323815,62.71875 135.644531,62.71875 C137.967524,62.71875 139.882875,62.0910151 141.406671,60.8774527 C142.905656,59.6836503 144.036642,57.9059994 144.756456,55.5126178 C146.046662,51.1458071 146.703125,44.8354188 146.703125,36.5722656 C146.703125,27.9068592 146.034734,21.49414 144.728624,17.3278158 C144.013606,15.0469988 142.884405,13.3529778 141.381031,12.2152889 C139.866758,11.0693533 137.960001,10.4746094 135.644531,10.4746094 Z" id="Shape"></path>
        </g>
    </g>
</svg>