<?xml version="1.0" encoding="UTF-8"?>
<svg width="300px" height="300px" viewBox="0 0 300 300" version="1.1" xmlns="http://www.w3.org/2000/svg" xmlns:xlink="http://www.w3.org/1999/xlink">
    <title>friend</title>
    <g id="friend" stroke="none" stroke-width="1" fill="none" fill-rule="evenodd">
        <g id="Group" transform="translate(36.000000, 40.000000)" fill-rule="nonzero">
            <polygon id="Path" fill="#1D1D1B" points="144.800251 48.240553 101.420762 64.0247005 75.4092244 105.967742 49.680421 64.5091244 6.01819734 48.6442396 57.3142418 128.331982 0 219 33.6857489 219 74.6418033 152.189862 116.122935 219 149.768294 219 92.7367859 130.108203"></polygon>
            <polygon id="Path" fill="#136EF6" points="145.042595 26.2396313 74.8841468 0 4.72569858 26.2396313 74.8841468 51.7929954"></polygon>
        </g>
        <path d="M264.281185,99.7167788 L264.281185,120.60898 C246.576374,120.60898 233.695064,132.125536 230.673897,149.083978 L260.542067,149.084348 L260.542067,170.200509 L229.371136,170.200509 L229.371136,258.568442 L206.867011,258.568442 L206.867011,170.200509 L181.042595,170.200509 L181.042595,149.084348 L207.77177,149.083891 C211.299959,120.384746 234.276461,99.7167788 264.281185,99.7167788 Z" id="Combined-Shape" stroke="#000000" fill="#FFFF00" fill-rule="nonzero"></path>
    </g>
</svg>