<?xml version="1.0" encoding="UTF-8"?>
<svg width="300px" height="300px" viewBox="0 0 300 300" version="1.1" xmlns="http://www.w3.org/2000/svg" xmlns:xlink="http://www.w3.org/1999/xlink">
    <title>achievement-issues-5</title>
    <g id="achievement-issues-5" stroke="none" stroke-width="1" fill="none" fill-rule="evenodd">
        <path d="M150,7 C163.14481,7 175.886534,8.75789801 188.002445,12.0509652 L188.001736,40.2912647 C176.069331,36.2137339 163.28544,34 150,34 C84.9964912,34 32,86.9964912 32,152 C32.1139501,217.122342 84.8776576,269.88605 150,270 C215.003509,270 268,217.003509 268,152 C268,127.580766 260.521102,104.855969 247.736298,85.9986017 L279.091341,85.9990168 C289.258932,105.806559 295,128.245068 295,152 C295,231.957143 229.957143,297 150,297 C70.0428571,297 5,231.957143 5,152 C5,72.0428571 70.0428571,7 150,7 Z" id="Combined-Shape" stroke-opacity="0.25" stroke="#000000" fill-opacity="0.75" fill="#FF9500" fill-rule="nonzero"></path>
        <g id="5" transform="translate(207.021484, 8.126953)" fill="#FF9500" fill-rule="nonzero" stroke="#000000" stroke-opacity="0.247633714" stroke-width="2">
            <path d="M45.1914062,1 L45.1914062,10.8164062 L16.3870011,10.8164062 L13.3366482,29.4118268 C16.3422279,27.3444087 18.5877869,26.0118047 20.0743693,25.449285 C21.9973931,24.7359052 24.3404445,24.3886719 27.0996094,24.3886719 C32.7029765,24.3886719 37.5901428,26.2724358 41.7614528,30.0390665 C45.9350727,33.807783 47.9746094,39.3056643 47.9746094,46.484375 C47.9746094,52.7917209 45.9488849,58.4235679 41.9011691,63.3812353 C37.8745323,68.313085 31.8318998,70.7285156 23.828125,70.7285156 C17.3560539,70.7285156 12.0296435,69.0146693 7.86731452,65.5408458 C3.97060099,62.2887015 1.72896585,57.7421736 1.09502583,51.9277344 L13.0488939,51.9277344 C13.681256,54.7853956 14.7828129,57.0102622 16.3161954,58.6235084 C18.0443686,60.4416906 20.5480461,61.4003906 23.8769531,61.4003906 C27.6902167,61.4003906 30.5742634,60.0318604 32.5646287,57.3601088 C34.4891589,54.7767304 35.4726562,51.5310416 35.4726562,47.6074219 C35.4726562,43.7684217 34.5572666,40.5331288 32.7606208,37.8899863 C30.8909355,35.1393915 27.997127,33.7167969 24.0234375,33.7167969 C22.2051603,33.7167969 20.6333098,33.9510515 19.3052186,34.4053985 C17.0687625,35.2064078 15.3453363,36.6242269 14.126402,38.6694084 L3.32608348,38.1631434 L8.05846879,1 L45.1914062,1 Z" id="Path"></path>
        </g>
        <path d="M149.5,194 C138.178163,194 129,203.178163 129,214.5 C129,225.821837 138.178163,235 149.5,235 C160.821837,235 170,225.821837 170,214.5 C170,203.178163 160.821837,194 149.5,194 Z" id="Path" stroke-opacity="0.25" stroke="#000000" fill-opacity="0.75" fill="#FF9500" fill-rule="nonzero"></path>
        <g id="shapes" transform="translate(117.660606, 80.711802)" fill="#FF9500" fill-opacity="0.5" fill-rule="nonzero">
            <polygon id="Path" transform="translate(24.387578, 47.113551) rotate(-5.000000) translate(-24.387578, -47.113551) " points="44.8875776 1.61355149 3.88757761 1.61355149 3.88757761 92.6135515 44.8875776 92.6135515"></polygon>
            <polygon id="Path" transform="translate(39.421943, 47.119259) rotate(5.000000) translate(-39.421943, -47.119259) " points="59.9219432 1.61925944 18.9219432 1.61925944 18.9219432 92.6192594 59.9219432 92.6192594"></polygon>
        </g>
        <g id="border" transform="translate(117.660606, 80.711802)" fill-rule="nonzero" stroke="#000000" stroke-opacity="0.25">
            <polygon id="Path" transform="translate(24.387578, 47.113551) rotate(-5.000000) translate(-24.387578, -47.113551) " points="44.8875776 1.61355149 3.88757761 1.61355149 3.88757761 92.6135515 44.8875776 92.6135515"></polygon>
            <polygon id="Path" transform="translate(39.421943, 47.119259) rotate(5.000000) translate(-39.421943, -47.119259) " points="59.9219432 1.61925944 18.9219432 1.61925944 18.9219432 92.6192594 59.9219432 92.6192594"></polygon>
        </g>
    </g>
</svg>