<?xml version="1.0" encoding="UTF-8"?>
<svg width="300px" height="300px" viewBox="0 0 300 300" version="1.1" xmlns="http://www.w3.org/2000/svg" xmlns:xlink="http://www.w3.org/1999/xlink">
    <title>achievement-issues-10</title>
    <g id="achievement-issues-10" stroke="none" stroke-width="1" fill="none" fill-rule="evenodd">
        <path d="M150,7 C163.14481,7 175.886534,8.75789801 188.002445,12.0509652 L188.001736,40.2912647 C176.069331,36.2137339 163.28544,34 150,34 C84.9964912,34 32,86.9964912 32,152 C32.1139501,217.122342 84.8776576,269.88605 150,270 C215.003509,270 268,217.003509 268,152 C268,127.580766 260.521102,104.855969 247.736298,85.9986017 L279.091341,85.9990168 C289.258932,105.806559 295,128.245068 295,152 C295,231.957143 229.957143,297 150,297 C70.0428571,297 5,231.957143 5,152 C5,72.0428571 70.0428571,7 150,7 Z" id="Combined-Shape" stroke-opacity="0.25" stroke="#000000" fill-opacity="0.75" fill="#FF0000" fill-rule="nonzero"></path>
        <g id="10" transform="translate(195.703125, 6.710938)" fill="#FF0000" fill-rule="nonzero" stroke="#000000" stroke-opacity="0.247633714" stroke-width="2">
            <path d="M29.9082031,1.48828125 L29.9082031,70.2890625 L17.6503906,70.2890625 L17.6503906,21.4609375 L1,21.4609375 L0.999999999,13.9422016 C4.97037581,13.7434733 7.78487189,13.4545785 9.44424372,13.0858285 C12.4558954,12.4204636 14.9007977,11.0807685 16.7899168,9.08669793 C18.0919296,7.71430612 19.0893828,5.89052084 19.7612778,3.59177267 C19.9945745,2.76462986 20.1535932,2.06329484 20.2441907,1.48828125 L29.9082031,1.48828125 Z" id="Path"></path>
            <path d="M76.2207031,1 C80.5512745,1 84.2413513,1.74920275 87.283801,3.27433819 C90.2733209,4.77294072 92.6265297,7.02286195 94.345779,10.0161828 C97.8929814,16.2477546 99.6347656,25.1068054 99.6347656,36.5722656 C99.6347656,48.0355522 97.8860031,56.8773525 94.3234268,63.0759156 C92.6105204,66.0562191 90.2637069,68.2936593 87.2790771,69.7840536 C84.2402242,71.3015245 80.5517245,72.046875 76.2207031,72.046875 C71.8896818,72.046875 68.201182,71.3015245 65.1623291,69.7840536 C62.1776993,68.2936593 59.8308858,66.0562191 58.1179794,63.0759156 C54.5554032,56.8773525 52.8066406,48.0355522 52.8066406,36.5722656 C52.8066406,25.1075949 54.5561273,16.2490405 58.1190827,10.017863 C59.832198,7.02183182 62.1791309,4.77238902 65.1641695,3.27410708 C68.2025167,1.74906796 71.8904248,1 76.2207031,1 Z M76.2207031,10.4746094 C73.9077601,10.4746094 71.9957651,11.0678734 70.4693359,12.2126953 C68.9546934,13.3486772 67.8076321,15.0403767 67.066655,17.3175258 C65.7102215,21.4860777 65.015625,27.9020047 65.015625,36.5722656 C65.015625,44.8407876 65.7065087,51.1632116 67.062268,55.5446288 C67.7996447,57.9276146 68.9428862,59.6977981 70.4500706,60.8865001 C71.9816129,62.0944129 73.8999873,62.71875 76.2207031,62.71875 C78.5436963,62.71875 80.4590468,62.0910151 81.9828431,60.8774527 C83.4818281,59.6836503 84.6128139,57.9059994 85.3326279,55.5126178 C86.6228343,51.1458071 87.2792969,44.8354188 87.2792969,36.5722656 C87.2792969,27.9068592 86.6109056,21.49414 85.304796,17.3278158 C84.589778,15.0469988 83.460577,13.3529778 81.9572024,12.2152889 C80.4429303,11.0693533 78.5361733,10.4746094 76.2207031,10.4746094 Z" id="Shape"></path>
        </g>
        <path d="M149.5,194 C138.178163,194 129,203.178163 129,214.5 C129,225.821837 138.178163,235 149.5,235 C160.821837,235 170,225.821837 170,214.5 C170,203.178163 160.821837,194 149.5,194 Z" id="Path" stroke-opacity="0.25" stroke="#000000" fill-opacity="0.75" fill="#FF0000" fill-rule="nonzero"></path>
        <g id="shapes" transform="translate(117.617029, 80.711802)" fill="#FF0000" fill-opacity="0.5" fill-rule="nonzero">
            <polygon id="Path" points="52.3829715 1.28819818 11.3829715 1.28819818 11.3829715 92.2881982 52.3829715 92.2881982"></polygon>
            <polygon id="Path" transform="translate(24.387578, 47.115454) rotate(-5.000000) translate(-24.387578, -47.115454) " points="44.8875776 1.61545414 3.88757761 1.61545414 3.88757761 92.6154541 44.8875776 92.6154541"></polygon>
            <polygon id="Path" transform="translate(39.334787, 47.113551) rotate(5.000000) translate(-39.334787, -47.113551) " points="59.8347875 1.61355149 18.8347875 1.61355149 18.8347875 92.6135515 59.8347875 92.6135515"></polygon>
        </g>
        <g id="border" transform="translate(117.617029, 80.711802)" fill-rule="nonzero" stroke="#000000" stroke-opacity="0.25">
            <polygon id="Path" points="52.3829715 1.28819818 11.3829715 1.28819818 11.3829715 92.2881982 52.3829715 92.2881982"></polygon>
            <polygon id="Path" transform="translate(24.387578, 47.115454) rotate(-5.000000) translate(-24.387578, -47.115454) " points="44.8875776 1.61545414 3.88757761 1.61545414 3.88757761 92.6154541 44.8875776 92.6154541"></polygon>
            <polygon id="Path" transform="translate(39.334787, 47.113551) rotate(5.000000) translate(-39.334787, -47.113551) " points="59.8347875 1.61355149 18.8347875 1.61355149 18.8347875 92.6135515 59.8347875 92.6135515"></polygon>
        </g>
    </g>
</svg>