<?xml version="1.0" encoding="UTF-8"?>
<svg width="300px" height="300px" viewBox="0 0 300 300" version="1.1" xmlns="http://www.w3.org/2000/svg" xmlns:xlink="http://www.w3.org/1999/xlink">
    <title>achievement-issues-50</title>
    <g id="achievement-issues-50" stroke="none" stroke-width="1" fill="none" fill-rule="evenodd">
        <path d="M150,7 C163.14481,7 175.886534,8.75789801 188.002445,12.0509652 L188.001736,40.2912647 C176.069331,36.2137339 163.28544,34 150,34 C84.9964912,34 32,86.9964912 32,152 C32.1139501,217.122342 84.8776576,269.88605 150,270 C215.003509,270 268,217.003509 268,152 C268,127.580766 260.521102,104.855969 247.736298,85.9986017 L279.091341,85.9990168 C289.258932,105.806559 295,128.245068 295,152 C295,231.957143 229.957143,297 150,297 C70.0428571,297 5,231.957143 5,152 C5,72.0428571 70.0428571,7 150,7 Z" id="Combined-Shape" stroke-opacity="0.25" stroke="#000000" fill-opacity="0.75" fill="#E100FF" fill-rule="nonzero"></path>
        <g id="50" transform="translate(191.406250, 6.710938)" fill="#FF00FF" fill-rule="nonzero" stroke="#000000" stroke-opacity="0.247633714" stroke-width="2">
            <path d="M45.1914062,2.41601562 L45.1914062,12.2324219 L16.3870011,12.2324219 L13.3366482,30.8278424 C16.3422279,28.7604243 18.5877869,27.4278203 20.0743693,26.8653006 C21.9973931,26.1519208 24.3404445,25.8046875 27.0996094,25.8046875 C32.7029765,25.8046875 37.5901428,27.6884515 41.7614528,31.4550821 C45.9350727,35.2237987 47.9746094,40.7216799 47.9746094,47.9003906 C47.9746094,54.2077365 45.9488849,59.8395835 41.9011691,64.797251 C37.8745323,69.7291006 31.8318998,72.1445312 23.828125,72.1445312 C17.3560539,72.1445312 12.0296435,70.4306849 7.86731452,66.9568615 C3.97060099,63.7047171 1.72896585,59.1581892 1.09502583,53.34375 L13.0488939,53.34375 C13.681256,56.2014112 14.7828129,58.4262779 16.3161954,60.039524 C18.0443686,61.8577062 20.5480461,62.8164062 23.8769531,62.8164062 C27.6902167,62.8164063 30.5742634,61.447876 32.5646287,58.7761244 C34.4891589,56.192746 35.4726562,52.9470572 35.4726562,49.0234375 C35.4726562,45.1844373 34.5572666,41.9491444 32.7606208,39.3060019 C30.8909355,36.5554072 27.997127,35.1328125 24.0234375,35.1328125 C22.2051603,35.1328125 20.6333098,35.3670671 19.3052186,35.8214141 C17.0687625,36.6224234 15.3453363,38.0402425 14.126402,40.085424 L3.32608348,39.5791591 L8.05846879,2.41601562 L45.1914062,2.41601562 Z" id="Path"></path>
            <path d="M80.5175781,1 C84.8481495,1 88.5382263,1.74920275 91.580676,3.27433819 C94.5701959,4.77294072 96.9234047,7.02286195 98.642654,10.0161828 C102.189856,16.2477546 103.931641,25.1068054 103.931641,36.5722656 C103.931641,48.0355522 102.182878,56.8773525 98.6203018,63.0759156 C96.9073954,66.0562191 94.5605819,68.2936593 91.5759521,69.7840536 C88.5370992,71.3015245 84.8485995,72.046875 80.5175781,72.046875 C76.1865568,72.046875 72.498057,71.3015245 69.4592041,69.7840536 C66.4745743,68.2936593 64.1277608,66.0562191 62.4148544,63.0759156 C58.8522782,56.8773525 57.1035156,48.0355522 57.1035156,36.5722656 C57.1035156,25.1075949 58.8530023,16.2490405 62.4159577,10.017863 C64.129073,7.02183182 66.4760059,4.77238902 69.4610445,3.27410708 C72.4993917,1.74906796 76.1872998,1 80.5175781,1 Z M80.5175781,10.4746094 C78.2046351,10.4746094 76.2926401,11.0678734 74.7662109,12.2126953 C73.2515684,13.3486772 72.1045071,15.0403767 71.36353,17.3175258 C70.0070965,21.4860777 69.3125,27.9020047 69.3125,36.5722656 C69.3125,44.8407876 70.0033837,51.1632116 71.359143,55.5446288 C72.0965197,57.9276146 73.2397612,59.6977981 74.7469456,60.8865001 C76.2784879,62.0944129 78.1968623,62.71875 80.5175781,62.71875 C82.8405713,62.71875 84.7559218,62.0910151 86.2797181,60.8774527 C87.7787031,59.6836503 88.9096889,57.9059994 89.6295029,55.5126178 C90.9197093,51.1458071 91.5761719,44.8354188 91.5761719,36.5722656 C91.5761719,27.9068592 90.9077806,21.49414 89.601671,17.3278158 C88.886653,15.0469988 87.757452,13.3529778 86.2540774,12.2152889 C84.7398053,11.0693533 82.8330483,10.4746094 80.5175781,10.4746094 Z" id="Shape"></path>
        </g>
        <path d="M149.5,194 C138.178163,194 129,203.178163 129,214.5 C129,225.821837 138.178163,235 149.5,235 C160.821837,235 170,225.821837 170,214.5 C170,203.178163 160.821837,194 149.5,194 Z" id="Path" stroke-opacity="0.25" stroke="#000000" fill-opacity="0.75" fill="#E100FF" fill-rule="nonzero"></path>
        <g id="shapes" transform="translate(84.786544, 80.447042)" fill="#E100FF" fill-opacity="0.3" fill-rule="nonzero">
            <polygon id="Path" points="85.213456 1.55295789 44.213456 1.55295789 44.213456 92.5529579 85.213456 92.5529579"></polygon>
            <polygon id="Path" transform="translate(79.727499, 48.375225) rotate(10.000000) translate(-79.727499, -48.375225) " points="100.227499 2.87522478 59.2274992 2.87522478 59.2274992 93.8752248 100.227499 93.8752248"></polygon>
            <polygon id="Path" transform="translate(94.236168, 52.254865) rotate(20.000000) translate(-94.236168, -52.254865) " points="114.736168 6.75486504 73.7361676 6.75486504 73.7361676 97.754865 114.736168 97.754865"></polygon>
            <polygon id="Path" transform="translate(49.659316, 48.368540) rotate(-10.000000) translate(-49.659316, -48.368540) " points="70.1593159 2.8685404 29.1593159 2.8685404 29.1593159 93.8685404 70.1593159 93.8685404"></polygon>
            <polygon id="Path" transform="translate(34.825615, 52.340832) rotate(-20.000000) translate(-34.825615, -52.340832) " points="55.3256152 6.84083183 14.3256152 6.84083183 14.3256152 97.8408318 55.3256152 97.8408318"></polygon>
        </g>
        <g id="border" transform="translate(84.786544, 80.447042)" fill-rule="nonzero" stroke="#000000" stroke-opacity="0.25">
            <polygon id="Path" points="85.213456 1.55295789 44.213456 1.55295789 44.213456 92.5529579 85.213456 92.5529579"></polygon>
            <polygon id="Path" transform="translate(79.727499, 48.375225) rotate(10.000000) translate(-79.727499, -48.375225) " points="100.227499 2.87522478 59.2274992 2.87522478 59.2274992 93.8752248 100.227499 93.8752248"></polygon>
            <polygon id="Path" transform="translate(94.236168, 52.254865) rotate(20.000000) translate(-94.236168, -52.254865) " points="114.736168 6.75486504 73.7361676 6.75486504 73.7361676 97.754865 114.736168 97.754865"></polygon>
            <polygon id="Path" transform="translate(49.659316, 48.368540) rotate(-10.000000) translate(-49.659316, -48.368540) " points="70.1593159 2.8685404 29.1593159 2.8685404 29.1593159 93.8685404 70.1593159 93.8685404"></polygon>
            <polygon id="Path" transform="translate(34.825615, 52.340832) rotate(-20.000000) translate(-34.825615, -52.340832) " points="55.3256152 6.84083183 14.3256152 6.84083183 14.3256152 97.8408318 55.3256152 97.8408318"></polygon>
        </g>
    </g>
</svg>