<?xml version="1.0" encoding="UTF-8"?>
<svg width="300px" height="300px" viewBox="0 0 300 300" version="1.1" xmlns="http://www.w3.org/2000/svg" xmlns:xlink="http://www.w3.org/1999/xlink">
    <title>achievement-pull_requests-25</title>
    <g id="achievement-pull_requests-25" stroke="none" stroke-width="1" fill="none" fill-rule="evenodd">
        <g id="25" transform="translate(191.894531, 4.857422)" fill="#FF0000" fill-rule="nonzero" stroke="#000000" stroke-opacity="0.247633714" stroke-width="2">
            <path d="M23.828125,1 C31.0190367,1 36.7576223,2.9635713 41.0152776,6.95512314 C45.2463766,10.9217785 47.3398437,16.178597 47.3398438,22.7050781 C47.3398438,27.7168126 45.8479468,32.16929 42.8558118,36.0653254 C40.8507871,38.706866 37.5485363,41.641778 32.9657147,44.8879446 L27.3994417,48.8429281 C23.880084,51.3426588 21.4720023,53.1531173 20.1728252,54.2713963 C18.3790281,55.8154242 16.9574348,57.6870219 15.9086727,59.8867187 L47.4863281,59.8867188 L47.4863281,70.1425781 L1.03969857,70.1425781 C1.27774946,65.6150407 2.31909815,61.4554459 4.17005189,57.6653978 C6.12718871,53.0172426 10.7268855,48.1800643 17.9160032,43.0495034 C22.3728599,39.8595705 25.7434176,37.2937043 28.0330032,35.349993 L28.4917023,34.9563221 C29.3253809,34.2326092 29.9976829,33.6007765 30.514933,33.0567324 C33.6070941,29.756111 35.1308594,26.1373942 35.1308594,22.2167969 C35.1308594,18.9598969 34.2105086,16.2608367 32.4078144,14.1046731 C30.5689976,11.905304 27.9501265,10.7675781 24.5117188,10.7675781 C22.2020376,10.7675781 20.2668584,11.2142084 18.6966592,12.074713 C17.0762617,12.9627275 15.8304101,14.2905027 14.9683719,16.0696071 C14.1217858,17.8254894 13.5698489,20.5294837 13.3550573,24.1953125 L1.82908344,24.1953125 C2.12928102,18.828759 3.15544735,14.4476395 4.93800632,11.0607769 C6.69499872,7.71632642 9.13003047,5.20316825 12.252067,3.53037339 C15.4187698,1.83364621 19.280229,1 23.828125,1 Z" id="Path"></path>
            <path d="M100.318359,2.26953125 L100.318359,12.0859375 L71.5139542,12.0859375 L68.4636013,30.681358 C71.469181,28.61394 73.71474,27.281336 75.2013224,26.7188162 C77.1243462,26.0054364 79.4673976,25.6582031 82.2265625,25.6582031 C87.8299296,25.6582031 92.7170959,27.5419671 96.8884059,31.3085978 C101.062026,35.0773143 103.101562,40.5751955 103.101562,47.7539062 C103.101562,54.0612521 101.075838,59.6930991 97.0281222,64.6507666 C93.0014854,69.5826163 86.9588529,71.9980469 78.9550781,71.9980469 C72.4830071,71.9980469 67.1565966,70.2842005 62.9942676,66.8103771 C59.0975541,63.5582327 56.855919,59.0117048 56.221979,53.1972656 L68.175847,53.1972656 C68.8082091,56.0549268 69.9097661,58.2797935 71.4431485,59.8930396 C73.1713217,61.7112218 75.6749992,62.6699219 79.0039062,62.6699219 C82.8171698,62.6699219 85.7012165,61.3013916 87.6915818,58.62964 C89.616112,56.0462616 90.5996094,52.8005729 90.5996094,48.8769531 C90.5996094,45.0379529 89.6842198,41.80266 87.8875739,39.1595175 C86.0178886,36.4089228 83.1240801,34.9863281 79.1503906,34.9863281 C77.3321134,34.9863281 75.760263,35.2205828 74.4321717,35.6749298 C72.1957157,36.4759391 70.4722894,37.8937582 69.2533551,39.9389396 L58.4530366,39.4326747 L63.1854219,2.26953125 L100.318359,2.26953125 Z" id="Path"></path>
        </g>
        <path d="M99.3248795,80.8911643 C99.3248795,62.7611813 84.7844508,48.2244134 66.6497589,48.2244134 C51.8904422,48.1855413 38.9508321,58.0764488 35.1192844,72.3261051 C31.2877368,86.5757614 37.5226695,101.619777 50.3121986,108.984471 L50.3121986,216.131038 C37.5226695,223.495732 31.2877368,238.539748 35.1192844,252.789404 C38.9508321,267.03906 51.8904422,276.929968 66.6497589,276.891096 C81.4090757,276.929968 94.3486857,267.03906 98.1802334,252.789404 C102.011781,238.539748 95.7768484,223.495732 82.9873192,216.131038 L82.9873192,108.984471 C92.6264797,103.431143 99.3248795,92.9778197 99.3248795,80.8911643 Z M86.2548312,244.224345 C86.2548312,255.004335 77.2691731,263.824327 66.6497589,263.824327 C56.0303447,263.824327 47.0446866,254.841002 47.0446866,244.224345 C47.0446866,233.607688 56.0303447,224.624363 66.6497589,224.624363 C77.2691731,224.624363 86.2548312,233.607688 86.2548312,244.224345 Z M66.6497589,100.491146 C55.8669691,100.491146 47.0446866,91.5078211 47.0446866,80.8911643 C47.0446866,70.2745076 56.0303447,61.2911826 66.6497589,61.2911826 C77.2691731,61.2911826 86.2548312,70.2745076 86.2548312,80.8911643 C86.2548312,91.5078211 77.2691731,100.491146 66.6497589,100.491146 Z" id="Shape" stroke-opacity="0.25" stroke="#000000" fill-opacity="0.75" fill="#FF0000" fill-rule="nonzero"></path>
        <g id="shapes" transform="translate(95.354059, 18.000000)" fill="#FF0000" fill-opacity="0.5" fill-rule="nonzero">
            <path d="M52.9835016,13.8912101 L52.9835016,46.5578463 L69.3210619,46.5578463 C82.0643589,47.0478458 93.1738999,52.2745076 102.976436,61.9111652 C112.778972,71.5478229 117.843616,82.8178124 118.333743,95.5578005 L118.333743,198.131038 C131.123272,205.495732 137.358205,220.539748 133.526657,234.789404 C129.695109,249.03906 116.755499,258.929968 101.996182,258.891096 C87.2368657,258.929968 74.2972556,249.03906 70.4657079,234.789404 C66.6341603,220.539748 72.869093,205.495732 85.6586221,198.131038 L85.6586221,95.5578005 C85.4952465,91.1478046 84.0248661,87.5544746 80.5939785,84.287811 C77.1630908,81.0211474 73.7322032,79.5511488 69.3210619,79.2244824 L52.9835016,79.2244824 L52.9835016,111.891119 L3.97082079,62.8911643 L52.9835016,13.8912101 Z M101.996182,206.624363 C91.3767682,206.624363 82.3911101,215.607688 82.3911101,226.224345 C82.3911101,236.841002 91.2133926,245.824327 101.996182,245.824327 C112.615597,245.824327 121.601255,236.841002 121.601255,226.224345 C121.601255,215.607688 112.615597,206.624363 101.996182,206.624363 Z" id="Combined-Shape"></path>
            <path d="M61.0415337,11.3319328 L61.0415337,43.9985689 L77.3790939,43.9985689 C90.122391,44.4885685 101.231932,49.7152302 111.034468,59.3518879 C120.837004,68.9885455 125.901648,80.258535 126.391775,92.9985231 L126.391775,195.571761 C139.181304,202.936454 145.416237,217.980471 141.584689,232.230127 C137.753141,246.479783 124.813531,256.370691 110.054214,256.331819 C95.2948978,256.370691 82.3552877,246.479783 78.52374,232.230127 C74.6921924,217.980471 80.927125,202.936454 93.7166542,195.571761 L93.7166542,92.9985231 C93.5532786,88.5885272 92.0828982,84.9951973 88.6520105,81.7285336 C85.2211229,78.46187 81.7902352,76.9918714 77.3790939,76.665205 L61.0415337,76.665205 L61.0415337,109.331841 L12.0288529,60.331887 L61.0415337,11.3319328 Z M110.054214,204.065086 C99.4348003,204.065086 90.4491422,213.048411 90.4491422,223.665068 C90.4491422,234.281724 99.2714247,243.265049 110.054214,243.265049 C120.673629,243.265049 129.659287,234.281724 129.659287,223.665068 C129.659287,213.048411 120.673629,204.065086 110.054214,204.065086 Z" id="Combined-Shape" transform="translate(77.366413, 133.831933) rotate(5.000000) translate(-77.366413, -133.831933) "></path>
            <path d="M69.2919582,9.48469802 L69.2919582,42.1513341 L85.6295185,42.1513341 C98.3728155,42.6413337 109.482356,47.8679955 119.284893,57.5046531 C129.087429,67.1413108 134.152072,78.4113003 134.642199,91.1512883 L134.642199,193.724526 C147.431728,201.08922 153.666661,216.133236 149.835114,230.382892 C146.003566,244.632548 133.063956,254.523456 118.304639,254.484584 C103.545322,254.523456 90.6057122,244.632548 86.7741646,230.382892 C82.9426169,216.133236 89.1775496,201.08922 101.967079,193.724526 L101.967079,91.1512883 C101.803703,86.7412925 100.333323,83.1479625 96.9024351,79.8812989 C93.4715474,76.6146353 90.0406598,75.1446366 85.6295185,74.8179703 L69.2919582,74.8179703 L69.2919582,107.484606 L20.2792774,58.4846522 L69.2919582,9.48469802 Z M118.304639,202.217851 C107.685225,202.217851 98.6995667,211.201176 98.6995667,221.817833 C98.6995667,232.43449 107.521849,241.417815 118.304639,241.417815 C128.924053,241.417815 137.909711,232.43449 137.909711,221.817833 C137.909711,211.201176 128.924053,202.217851 118.304639,202.217851 Z" id="Combined-Shape" transform="translate(85.616838, 131.984698) rotate(10.000000) translate(-85.616838, -131.984698) "></path>
        </g>
        <g id="borders" transform="translate(95.354059, 18.000000)" fill-rule="nonzero" stroke="#000000" stroke-opacity="0.25">
            <path d="M52.9835016,13.8912101 L52.9835016,46.5578463 L69.3210619,46.5578463 C82.0643589,47.0478458 93.1738999,52.2745076 102.976436,61.9111652 C112.778972,71.5478229 117.843616,82.8178124 118.333743,95.5578005 L118.333743,198.131038 C131.123272,205.495732 137.358205,220.539748 133.526657,234.789404 C129.695109,249.03906 116.755499,258.929968 101.996182,258.891096 C87.2368657,258.929968 74.2972556,249.03906 70.4657079,234.789404 C66.6341603,220.539748 72.869093,205.495732 85.6586221,198.131038 L85.6586221,95.5578005 C85.4952465,91.1478046 84.0248661,87.5544746 80.5939785,84.287811 C77.1630908,81.0211474 73.7322032,79.5511488 69.3210619,79.2244824 L52.9835016,79.2244824 L52.9835016,111.891119 L3.97082079,62.8911643 L52.9835016,13.8912101 Z M101.996182,206.624363 C91.3767682,206.624363 82.3911101,215.607688 82.3911101,226.224345 C82.3911101,236.841002 91.2133926,245.824327 101.996182,245.824327 C112.615597,245.824327 121.601255,236.841002 121.601255,226.224345 C121.601255,215.607688 112.615597,206.624363 101.996182,206.624363 Z" id="Combined-Shape"></path>
            <path d="M61.0415337,11.3319328 L61.0415337,43.9985689 L77.3790939,43.9985689 C90.122391,44.4885685 101.231932,49.7152302 111.034468,59.3518879 C120.837004,68.9885455 125.901648,80.258535 126.391775,92.9985231 L126.391775,195.571761 C139.181304,202.936454 145.416237,217.980471 141.584689,232.230127 C137.753141,246.479783 124.813531,256.370691 110.054214,256.331819 C95.2948978,256.370691 82.3552877,246.479783 78.52374,232.230127 C74.6921924,217.980471 80.927125,202.936454 93.7166542,195.571761 L93.7166542,92.9985231 C93.5532786,88.5885272 92.0828982,84.9951973 88.6520105,81.7285336 C85.2211229,78.46187 81.7902352,76.9918714 77.3790939,76.665205 L61.0415337,76.665205 L61.0415337,109.331841 L12.0288529,60.331887 L61.0415337,11.3319328 Z M110.054214,204.065086 C99.4348003,204.065086 90.4491422,213.048411 90.4491422,223.665068 C90.4491422,234.281724 99.2714247,243.265049 110.054214,243.265049 C120.673629,243.265049 129.659287,234.281724 129.659287,223.665068 C129.659287,213.048411 120.673629,204.065086 110.054214,204.065086 Z" id="Combined-Shape" transform="translate(77.366413, 133.831933) rotate(5.000000) translate(-77.366413, -133.831933) "></path>
            <path d="M69.2919582,9.48469802 L69.2919582,42.1513341 L85.6295185,42.1513341 C98.3728155,42.6413337 109.482356,47.8679955 119.284893,57.5046531 C129.087429,67.1413108 134.152072,78.4113003 134.642199,91.1512883 L134.642199,193.724526 C147.431728,201.08922 153.666661,216.133236 149.835114,230.382892 C146.003566,244.632548 133.063956,254.523456 118.304639,254.484584 C103.545322,254.523456 90.6057122,244.632548 86.7741646,230.382892 C82.9426169,216.133236 89.1775496,201.08922 101.967079,193.724526 L101.967079,91.1512883 C101.803703,86.7412925 100.333323,83.1479625 96.9024351,79.8812989 C93.4715474,76.6146353 90.0406598,75.1446366 85.6295185,74.8179703 L69.2919582,74.8179703 L69.2919582,107.484606 L20.2792774,58.4846522 L69.2919582,9.48469802 Z M118.304639,202.217851 C107.685225,202.217851 98.6995667,211.201176 98.6995667,221.817833 C98.6995667,232.43449 107.521849,241.417815 118.304639,241.417815 C128.924053,241.417815 137.909711,232.43449 137.909711,221.817833 C137.909711,211.201176 128.924053,202.217851 118.304639,202.217851 Z" id="Combined-Shape" transform="translate(85.616838, 131.984698) rotate(10.000000) translate(-85.616838, -131.984698) "></path>
        </g>
    </g>
</svg>