<?xml version="1.0" encoding="UTF-8"?>
<svg width="300px" height="300px" viewBox="0 0 300 300" version="1.1" xmlns="http://www.w3.org/2000/svg" xmlns:xlink="http://www.w3.org/1999/xlink">
    <title>achievement-pull_requests-100</title>
    <g id="achievement-pull_requests-100" stroke="none" stroke-width="1" fill="none" fill-rule="evenodd">
        <g id="100" transform="translate(140.087891, 4.710938)" fill="#FF00FF" fill-rule="nonzero" stroke="#000000" stroke-opacity="0.247633714" stroke-width="2">
            <path d="M29.9082031,1.48828125 L29.9082031,70.2890625 L17.6503906,70.2890625 L17.6503906,21.4609375 L1,21.4609375 L0.999999999,13.9422016 C4.97037581,13.7434733 7.78487189,13.4545785 9.44424372,13.0858285 C12.4558954,12.4204636 14.9007977,11.0807685 16.7899168,9.08669793 C18.0919296,7.71430612 19.0893828,5.89052084 19.7612778,3.59177267 C19.9945745,2.76462986 20.1535932,2.06329484 20.2441907,1.48828125 L29.9082031,1.48828125 Z" id="Path"></path>
            <path d="M76.2207031,1 C80.5512745,1 84.2413513,1.74920275 87.283801,3.27433819 C90.2733209,4.77294072 92.6265297,7.02286195 94.345779,10.0161828 C97.8929814,16.2477546 99.6347656,25.1068054 99.6347656,36.5722656 C99.6347656,48.0355522 97.8860031,56.8773525 94.3234268,63.0759156 C92.6105204,66.0562191 90.2637069,68.2936593 87.2790771,69.7840536 C84.2402242,71.3015245 80.5517245,72.046875 76.2207031,72.046875 C71.8896818,72.046875 68.201182,71.3015245 65.1623291,69.7840536 C62.1776993,68.2936593 59.8308858,66.0562191 58.1179794,63.0759156 C54.5554032,56.8773525 52.8066406,48.0355522 52.8066406,36.5722656 C52.8066406,25.1075949 54.5561273,16.2490405 58.1190827,10.017863 C59.832198,7.02183182 62.1791309,4.77238902 65.1641695,3.27410708 C68.2025167,1.74906796 71.8904248,1 76.2207031,1 Z M76.2207031,10.4746094 C73.9077601,10.4746094 71.9957651,11.0678734 70.4693359,12.2126953 C68.9546934,13.3486772 67.8076321,15.0403767 67.066655,17.3175258 C65.7102215,21.4860777 65.015625,27.9020047 65.015625,36.5722656 C65.015625,44.8407876 65.7065087,51.1632116 67.062268,55.5446288 C67.7996447,57.9276146 68.9428862,59.6977981 70.4500706,60.8865001 C71.9816129,62.0944129 73.8999873,62.71875 76.2207031,62.71875 C78.5436963,62.71875 80.4590468,62.0910151 81.9828431,60.8774527 C83.4818281,59.6836503 84.6128139,57.9059994 85.3326279,55.5126178 C86.6228343,51.1458071 87.2792969,44.8354188 87.2792969,36.5722656 C87.2792969,27.9068592 86.6109056,21.49414 85.304796,17.3278158 C84.589778,15.0469988 83.460577,13.3529778 81.9572024,12.2152889 C80.4429303,11.0693533 78.5361733,10.4746094 76.2207031,10.4746094 Z" id="Shape"></path>
            <path d="M131.835938,1 C136.166509,1 139.856586,1.74920275 142.899035,3.27433819 C145.888555,4.77294072 148.241764,7.02286195 149.961013,10.0161828 C153.508216,16.2477546 155.25,25.1068054 155.25,36.5722656 C155.25,48.0355522 153.501237,56.8773525 149.938661,63.0759156 C148.225755,66.0562191 145.878941,68.2936593 142.894311,69.7840536 C139.855459,71.3015245 136.166959,72.046875 131.835938,72.046875 C127.504916,72.046875 123.816416,71.3015245 120.777564,69.7840536 C117.792934,68.2936593 115.44612,66.0562191 113.733214,63.0759156 C110.170638,56.8773525 108.421875,48.0355522 108.421875,36.5722656 C108.421875,25.1075949 110.171362,16.2490405 113.734317,10.017863 C115.447432,7.02183182 117.794365,4.77238902 120.779404,3.27410708 C123.817751,1.74906796 127.505659,1 131.835938,1 Z M131.835938,10.4746094 C129.522994,10.4746094 127.611,11.0678734 126.08457,12.2126953 C124.569928,13.3486772 123.422866,15.0403767 122.681889,17.3175258 C121.325456,21.4860777 120.630859,27.9020047 120.630859,36.5722656 C120.630859,44.8407876 121.321743,51.1632116 122.677502,55.5446288 C123.414879,57.9276146 124.558121,59.6977981 126.065305,60.8865001 C127.596847,62.0944129 129.515222,62.71875 131.835938,62.71875 C134.158931,62.71875 136.074281,62.0910151 137.598078,60.8774527 C139.097062,59.6836503 140.228048,57.9059994 140.947862,55.5126178 C142.238069,51.1458071 142.894531,44.8354188 142.894531,36.5722656 C142.894531,27.9068592 142.22614,21.49414 140.92003,17.3278158 C140.205012,15.0469988 139.075811,13.3529778 137.572437,12.2152889 C136.058165,11.0693533 134.151408,10.4746094 131.835938,10.4746094 Z" id="Shape"></path>
        </g>
        <path d="M82.3248795,82.7926586 C82.3248795,64.6626755 67.7844508,50.1259076 49.6497589,50.1259076 C34.8904422,50.0870356 21.9508321,59.9779431 18.1192844,74.2275994 C14.2877368,88.4772556 20.5226695,103.521272 33.3121986,110.885966 L33.3121986,218.032532 C20.5226695,225.397226 14.2877368,240.441242 18.1192844,254.690898 C21.9508321,268.940555 34.8904422,278.831462 49.6497589,278.79259 C64.4090757,278.831462 77.3486857,268.940555 81.1802334,254.690898 C85.0117811,240.441242 78.7768484,225.397226 65.9873192,218.032532 L65.9873192,110.885966 C75.6264797,105.332638 82.3248795,94.879314 82.3248795,82.7926586 Z M69.2548312,246.125839 C69.2548312,256.905829 60.2691731,265.725821 49.6497589,265.725821 C39.0303447,265.725821 30.0446866,256.742496 30.0446866,246.125839 C30.0446866,235.509183 39.0303447,226.525858 49.6497589,226.525858 C60.2691731,226.525858 69.2548312,235.509183 69.2548312,246.125839 Z M49.6497589,102.39264 C38.8669691,102.39264 30.0446866,93.4093153 30.0446866,82.7926586 C30.0446866,72.1760019 39.0303447,63.1926769 49.6497589,63.1926769 C60.2691731,63.1926769 69.2548312,72.1760019 69.2548312,82.7926586 C69.2548312,93.4093153 60.2691731,102.39264 49.6497589,102.39264 Z" id="Shape" stroke-opacity="0.25" stroke="#000000" fill-opacity="0.75" fill="#E100FF" fill-rule="nonzero"></path>
        <g id="shapes" transform="translate(76.958899, 13.000000)" fill="#E100FF" fill-opacity="0.3" fill-rule="nonzero">
            <path d="M54.3786613,20.7927044 L54.3786613,53.4593405 L70.7162216,53.4593405 C83.4595186,53.9493401 94.5690596,59.1760019 104.371596,68.8126595 C114.174132,78.4493172 119.238776,89.7193066 119.728902,102.459295 L119.728902,205.032532 C132.518432,212.397226 138.753364,227.441242 134.921817,241.690898 C131.090269,255.940555 118.150659,265.831462 103.391342,265.79259 C88.6320254,265.831462 75.6924153,255.940555 71.8608677,241.690898 C68.02932,227.441242 74.2642527,212.397226 87.0537819,205.032532 L87.0537819,102.459295 C86.8904063,98.0492989 85.4200258,94.4559689 81.9891382,91.1893053 C78.5582505,87.9226417 75.1273629,86.452643 70.7162216,86.1259767 L54.3786613,86.1259767 L54.3786613,118.792613 L5.36598051,69.7926586 L54.3786613,20.7927044 Z M103.391342,213.525858 C92.771928,213.525858 83.7862698,222.509183 83.7862698,233.125839 C83.7862698,243.742496 92.6085524,252.725821 103.391342,252.725821 C114.010756,252.725821 122.996414,243.742496 122.996414,233.125839 C122.996414,222.509183 114.010756,213.525858 103.391342,213.525858 Z" id="Combined-Shape"></path>
            <path d="M62.4366934,18.2334271 L62.4366934,50.9000632 L78.7742537,50.9000632 C91.5175507,51.3900627 102.627092,56.6167245 112.429628,66.2533822 C122.232164,75.8900398 127.296808,87.1600293 127.786934,99.9000174 L127.786934,202.473255 C140.576464,209.837949 146.811396,224.881965 142.979849,239.131621 C139.148301,253.381277 126.208691,263.272185 111.449374,263.233313 C96.6900575,263.272185 83.7504474,253.381277 79.9188997,239.131621 C76.0873521,224.881965 82.3222848,209.837949 95.1118139,202.473255 L95.1118139,99.9000174 C94.9484383,95.4900215 93.4780579,91.8966915 90.0471702,88.6300279 C86.6162826,85.3633643 83.1853949,83.8933657 78.7742537,83.5666993 L62.4366934,83.5666993 L62.4366934,116.233335 L13.4240126,67.2333812 L62.4366934,18.2334271 Z M111.449374,210.96658 C100.82996,210.96658 91.8443019,219.949905 91.8443019,230.566562 C91.8443019,241.183219 100.666584,250.166544 111.449374,250.166544 C122.068788,250.166544 131.054447,241.183219 131.054447,230.566562 C131.054447,219.949905 122.068788,210.96658 111.449374,210.96658 Z" id="Combined-Shape" transform="translate(78.761573, 140.733427) rotate(5.000000) translate(-78.761573, -140.733427) "></path>
            <path d="M70.6871179,16.3861923 L70.6871179,49.0528284 L87.0246782,49.0528284 C99.7679752,49.542828 110.877516,54.7694897 120.680052,64.4061474 C130.482589,74.0428051 135.547232,85.3127945 136.037359,98.0527826 L136.037359,200.62602 C148.826888,207.990714 155.061821,223.03473 151.230273,237.284386 C147.398726,251.534043 134.459115,261.42495 119.699799,261.386078 C104.940482,261.42495 92.0008719,251.534043 88.1693243,237.284386 C84.3377766,223.03473 90.5727093,207.990714 103.362238,200.62602 L103.362238,98.0527826 C103.198863,93.6427867 101.728482,90.0494568 98.2975948,86.7827932 C94.8667071,83.5161295 91.4358195,82.0461309 87.0246782,81.7194646 L70.6871179,81.7194646 L70.6871179,114.386101 L21.6744371,65.3861465 L70.6871179,16.3861923 Z M119.699799,209.119345 C109.080385,209.119345 100.094726,218.10267 100.094726,228.719327 C100.094726,239.335984 108.917009,248.319309 119.699799,248.319309 C130.319213,248.319309 139.304871,239.335984 139.304871,228.719327 C139.304871,218.10267 130.319213,209.119345 119.699799,209.119345 Z" id="Combined-Shape" transform="translate(87.011997, 138.886192) rotate(10.000000) translate(-87.011997, -138.886192) "></path>
            <path d="M78.9377347,15.2480216 L78.9377347,47.9146577 L95.275295,47.9146577 C108.018592,48.4046573 119.128133,53.6313191 128.930669,63.2679767 C138.733205,72.9046344 143.797849,84.1746238 144.287976,96.9146119 L144.287976,199.487849 C157.077505,206.852543 163.312438,221.896559 159.48089,236.146216 C155.649342,250.395872 142.709732,260.286779 127.950416,260.247907 C113.191099,260.286779 100.251489,250.395872 96.4199411,236.146216 C92.5883934,221.896559 98.8233261,206.852543 111.612855,199.487849 L111.612855,96.9146119 C111.44948,92.5046161 109.979099,88.9112861 106.548212,85.6446225 C103.117324,82.3779589 99.6864363,80.9079602 95.275295,80.5812939 L78.9377347,80.5812939 L78.9377347,113.24793 L29.9250539,64.2479758 L78.9377347,15.2480216 Z M127.950416,207.981175 C117.331001,207.981175 108.345343,216.9645 108.345343,227.581156 C108.345343,238.197813 117.167626,247.181138 127.950416,247.181138 C138.56983,247.181138 147.555488,238.197813 147.555488,227.581156 C147.555488,216.9645 138.56983,207.981175 127.950416,207.981175 Z" id="Combined-Shape" transform="translate(95.262614, 137.748022) rotate(15.000000) translate(-95.262614, -137.748022) "></path>
            <path d="M86.9698113,14.9591078 L86.9698113,47.6257439 L103.307372,47.6257439 C116.050669,48.1157434 127.16021,53.3424052 136.962746,62.9790629 C146.765282,72.6157205 151.829926,83.88571 152.320052,96.6256981 L152.320052,199.198936 C165.109582,206.563629 171.344514,221.607646 167.512967,235.857302 C163.681419,250.106958 150.741809,259.997866 135.982492,259.958994 C121.223175,259.997866 108.283565,250.106958 104.452018,235.857302 C100.62047,221.607646 106.855403,206.563629 119.644932,199.198936 L119.644932,96.6256981 C119.481556,92.2157022 118.011176,88.6223723 114.580288,85.3557086 C111.149401,82.089045 107.718513,80.6190464 103.307372,80.29238 L86.9698113,80.29238 L86.9698113,112.959016 L37.9571305,63.959062 L86.9698113,14.9591078 Z M135.982492,207.692261 C125.363078,207.692261 116.37742,216.675586 116.37742,227.292243 C116.37742,237.908899 125.199702,246.892224 135.982492,246.892224 C146.601906,246.892224 155.587564,237.908899 155.587564,227.292243 C155.587564,216.675586 146.601906,207.692261 135.982492,207.692261 Z" id="Combined-Shape" transform="translate(103.294691, 137.459108) rotate(20.000000) translate(-103.294691, -137.459108) "></path>
        </g>
        <g id="borders" transform="translate(76.958899, 13.000000)" fill-rule="nonzero" stroke="#000000" stroke-opacity="0.25">
            <path d="M54.3786613,20.7927044 L54.3786613,53.4593405 L70.7162216,53.4593405 C83.4595186,53.9493401 94.5690596,59.1760019 104.371596,68.8126595 C114.174132,78.4493172 119.238776,89.7193066 119.728902,102.459295 L119.728902,205.032532 C132.518432,212.397226 138.753364,227.441242 134.921817,241.690898 C131.090269,255.940555 118.150659,265.831462 103.391342,265.79259 C88.6320254,265.831462 75.6924153,255.940555 71.8608677,241.690898 C68.02932,227.441242 74.2642527,212.397226 87.0537819,205.032532 L87.0537819,102.459295 C86.8904063,98.0492989 85.4200258,94.4559689 81.9891382,91.1893053 C78.5582505,87.9226417 75.1273629,86.452643 70.7162216,86.1259767 L54.3786613,86.1259767 L54.3786613,118.792613 L5.36598051,69.7926586 L54.3786613,20.7927044 Z M103.391342,213.525858 C92.771928,213.525858 83.7862698,222.509183 83.7862698,233.125839 C83.7862698,243.742496 92.6085524,252.725821 103.391342,252.725821 C114.010756,252.725821 122.996414,243.742496 122.996414,233.125839 C122.996414,222.509183 114.010756,213.525858 103.391342,213.525858 Z" id="Combined-Shape"></path>
            <path d="M62.4366934,18.2334271 L62.4366934,50.9000632 L78.7742537,50.9000632 C91.5175507,51.3900627 102.627092,56.6167245 112.429628,66.2533822 C122.232164,75.8900398 127.296808,87.1600293 127.786934,99.9000174 L127.786934,202.473255 C140.576464,209.837949 146.811396,224.881965 142.979849,239.131621 C139.148301,253.381277 126.208691,263.272185 111.449374,263.233313 C96.6900575,263.272185 83.7504474,253.381277 79.9188997,239.131621 C76.0873521,224.881965 82.3222848,209.837949 95.1118139,202.473255 L95.1118139,99.9000174 C94.9484383,95.4900215 93.4780579,91.8966915 90.0471702,88.6300279 C86.6162826,85.3633643 83.1853949,83.8933657 78.7742537,83.5666993 L62.4366934,83.5666993 L62.4366934,116.233335 L13.4240126,67.2333812 L62.4366934,18.2334271 Z M111.449374,210.96658 C100.82996,210.96658 91.8443019,219.949905 91.8443019,230.566562 C91.8443019,241.183219 100.666584,250.166544 111.449374,250.166544 C122.068788,250.166544 131.054447,241.183219 131.054447,230.566562 C131.054447,219.949905 122.068788,210.96658 111.449374,210.96658 Z" id="Combined-Shape" transform="translate(78.761573, 140.733427) rotate(5.000000) translate(-78.761573, -140.733427) "></path>
            <path d="M70.6871179,16.3861923 L70.6871179,49.0528284 L87.0246782,49.0528284 C99.7679752,49.542828 110.877516,54.7694897 120.680052,64.4061474 C130.482589,74.0428051 135.547232,85.3127945 136.037359,98.0527826 L136.037359,200.62602 C148.826888,207.990714 155.061821,223.03473 151.230273,237.284386 C147.398726,251.534043 134.459115,261.42495 119.699799,261.386078 C104.940482,261.42495 92.0008719,251.534043 88.1693243,237.284386 C84.3377766,223.03473 90.5727093,207.990714 103.362238,200.62602 L103.362238,98.0527826 C103.198863,93.6427867 101.728482,90.0494568 98.2975948,86.7827932 C94.8667071,83.5161295 91.4358195,82.0461309 87.0246782,81.7194646 L70.6871179,81.7194646 L70.6871179,114.386101 L21.6744371,65.3861465 L70.6871179,16.3861923 Z M119.699799,209.119345 C109.080385,209.119345 100.094726,218.10267 100.094726,228.719327 C100.094726,239.335984 108.917009,248.319309 119.699799,248.319309 C130.319213,248.319309 139.304871,239.335984 139.304871,228.719327 C139.304871,218.10267 130.319213,209.119345 119.699799,209.119345 Z" id="Combined-Shape" transform="translate(87.011997, 138.886192) rotate(10.000000) translate(-87.011997, -138.886192) "></path>
            <path d="M78.9377347,15.2480216 L78.9377347,47.9146577 L95.275295,47.9146577 C108.018592,48.4046573 119.128133,53.6313191 128.930669,63.2679767 C138.733205,72.9046344 143.797849,84.1746238 144.287976,96.9146119 L144.287976,199.487849 C157.077505,206.852543 163.312438,221.896559 159.48089,236.146216 C155.649342,250.395872 142.709732,260.286779 127.950416,260.247907 C113.191099,260.286779 100.251489,250.395872 96.4199411,236.146216 C92.5883934,221.896559 98.8233261,206.852543 111.612855,199.487849 L111.612855,96.9146119 C111.44948,92.5046161 109.979099,88.9112861 106.548212,85.6446225 C103.117324,82.3779589 99.6864363,80.9079602 95.275295,80.5812939 L78.9377347,80.5812939 L78.9377347,113.24793 L29.9250539,64.2479758 L78.9377347,15.2480216 Z M127.950416,207.981175 C117.331001,207.981175 108.345343,216.9645 108.345343,227.581156 C108.345343,238.197813 117.167626,247.181138 127.950416,247.181138 C138.56983,247.181138 147.555488,238.197813 147.555488,227.581156 C147.555488,216.9645 138.56983,207.981175 127.950416,207.981175 Z" id="Combined-Shape" transform="translate(95.262614, 137.748022) rotate(15.000000) translate(-95.262614, -137.748022) "></path>
            <path d="M86.9698113,14.9591078 L86.9698113,47.6257439 L103.307372,47.6257439 C116.050669,48.1157434 127.16021,53.3424052 136.962746,62.9790629 C146.765282,72.6157205 151.829926,83.88571 152.320052,96.6256981 L152.320052,199.198936 C165.109582,206.563629 171.344514,221.607646 167.512967,235.857302 C163.681419,250.106958 150.741809,259.997866 135.982492,259.958994 C121.223175,259.997866 108.283565,250.106958 104.452018,235.857302 C100.62047,221.607646 106.855403,206.563629 119.644932,199.198936 L119.644932,96.6256981 C119.481556,92.2157022 118.011176,88.6223723 114.580288,85.3557086 C111.149401,82.089045 107.718513,80.6190464 103.307372,80.29238 L86.9698113,80.29238 L86.9698113,112.959016 L37.9571305,63.959062 L86.9698113,14.9591078 Z M135.982492,207.692261 C125.363078,207.692261 116.37742,216.675586 116.37742,227.292243 C116.37742,237.908899 125.199702,246.892224 135.982492,246.892224 C146.601906,246.892224 155.587564,237.908899 155.587564,227.292243 C155.587564,216.675586 146.601906,207.692261 135.982492,207.692261 Z" id="Combined-Shape" transform="translate(103.294691, 137.459108) rotate(20.000000) translate(-103.294691, -137.459108) "></path>
        </g>
    </g>
</svg>