<?xml version="1.0" encoding="UTF-8"?>
<svg width="300px" height="300px" viewBox="0 0 300 300" version="1.1" xmlns="http://www.w3.org/2000/svg" xmlns:xlink="http://www.w3.org/1999/xlink">
    <title>achievement-pull_requests-10</title>
    <g id="achievement-pull_requests-10" stroke="none" stroke-width="1" fill="none" fill-rule="evenodd">
        <g id="10" transform="translate(195.703125, 4.710938)" fill="#FF9500" fill-rule="nonzero" stroke="#000000" stroke-opacity="0.247633714" stroke-width="2">
            <path d="M29.9082031,1.48828125 L29.9082031,70.2890625 L17.6503906,70.2890625 L17.6503906,21.4609375 L1,21.4609375 L0.999999999,13.9422016 C4.97037581,13.7434733 7.78487189,13.4545785 9.44424372,13.0858285 C12.4558954,12.4204636 14.9007977,11.0807685 16.7899168,9.08669793 C18.0919296,7.71430612 19.0893828,5.89052084 19.7612778,3.59177267 C19.9945745,2.76462986 20.1535932,2.06329484 20.2441907,1.48828125 L29.9082031,1.48828125 Z" id="Path"></path>
            <path d="M76.2207031,1 C80.5512745,1 84.2413513,1.74920275 87.283801,3.27433819 C90.2733209,4.77294072 92.6265297,7.02286195 94.345779,10.0161828 C97.8929814,16.2477546 99.6347656,25.1068054 99.6347656,36.5722656 C99.6347656,48.0355522 97.8860031,56.8773525 94.3234268,63.0759156 C92.6105204,66.0562191 90.2637069,68.2936593 87.2790771,69.7840536 C84.2402242,71.3015245 80.5517245,72.046875 76.2207031,72.046875 C71.8896818,72.046875 68.201182,71.3015245 65.1623291,69.7840536 C62.1776993,68.2936593 59.8308858,66.0562191 58.1179794,63.0759156 C54.5554032,56.8773525 52.8066406,48.0355522 52.8066406,36.5722656 C52.8066406,25.1075949 54.5561273,16.2490405 58.1190827,10.017863 C59.832198,7.02183182 62.1791309,4.77238902 65.1641695,3.27410708 C68.2025167,1.74906796 71.8904248,1 76.2207031,1 Z M76.2207031,10.4746094 C73.9077601,10.4746094 71.9957651,11.0678734 70.4693359,12.2126953 C68.9546934,13.3486772 67.8076321,15.0403767 67.066655,17.3175258 C65.7102215,21.4860777 65.015625,27.9020047 65.015625,36.5722656 C65.015625,44.8407876 65.7065087,51.1632116 67.062268,55.5446288 C67.7996447,57.9276146 68.9428862,59.6977981 70.4500706,60.8865001 C71.9816129,62.0944129 73.8999873,62.71875 76.2207031,62.71875 C78.5436963,62.71875 80.4590468,62.0910151 81.9828431,60.8774527 C83.4818281,59.6836503 84.6128139,57.9059994 85.3326279,55.5126178 C86.6228343,51.1458071 87.2792969,44.8354188 87.2792969,36.5722656 C87.2792969,27.9068592 86.6109056,21.49414 85.304796,17.3278158 C84.589778,15.0469988 83.460577,13.3529778 81.9572024,12.2152889 C80.4429303,11.0693533 78.5361733,10.4746094 76.2207031,10.4746094 Z" id="Shape"></path>
        </g>
        <path d="M108.324879,78.7876257 C108.324879,60.6576426 93.7844508,46.1208747 75.6497589,46.1208747 C60.8904422,46.0820026 47.9508321,55.9729102 44.1192844,70.2225664 C40.2877368,84.4722227 46.5226695,99.5162388 59.3121986,106.880933 L59.3121986,214.027499 C46.5226695,221.392193 40.2877368,236.436209 44.1192844,250.685866 C47.9508321,264.935522 60.8904422,274.826429 75.6497589,274.787557 C90.4090757,274.826429 103.348686,264.935522 107.180233,250.685866 C111.011781,236.436209 104.776848,221.392193 91.9873192,214.027499 L91.9873192,106.880933 C101.62648,101.327605 108.324879,90.874281 108.324879,78.7876257 Z M95.2548312,242.120806 C95.2548312,252.900796 86.2691731,261.720788 75.6497589,261.720788 C65.0303447,261.720788 56.0446866,252.737463 56.0446866,242.120806 C56.0446866,231.50415 65.0303447,222.520825 75.6497589,222.520825 C86.2691731,222.520825 95.2548312,231.50415 95.2548312,242.120806 Z M75.6497589,98.3876073 C64.8669691,98.3876073 56.0446866,89.4042824 56.0446866,78.7876257 C56.0446866,68.1709689 65.0303447,59.187644 75.6497589,59.187644 C86.2691731,59.187644 95.2548312,68.1709689 95.2548312,78.7876257 C95.2548312,89.4042824 86.2691731,98.3876073 75.6497589,98.3876073 Z" id="Shape" stroke-opacity="0.25" stroke="#000000" fill-opacity="0.75" fill="#FF9500" fill-rule="nonzero"></path>
        <g id="shapes" transform="translate(105.954962, 22.000000)" fill="#FF9500" fill-opacity="0.5" fill-rule="nonzero">
            <path d="M51.3825981,7.78767146 L51.3825981,40.4543076 L67.7201584,40.4543076 C80.4634554,40.9443071 91.5729964,46.1709689 101.375533,55.8076266 C111.178069,65.4442842 116.242712,76.7142737 116.732839,89.4542618 L116.732839,192.027499 C129.522368,199.392193 135.757301,214.436209 131.925753,228.685866 C128.094206,242.935522 115.154596,252.826429 100.395279,252.787557 C85.6359622,252.826429 72.6963521,242.935522 68.8648044,228.685866 C65.0332568,214.436209 71.2681894,199.392193 84.0577186,192.027499 L84.0577186,89.4542618 C83.894343,85.0442659 82.4239626,81.4509359 78.9930749,78.1842723 C75.5621873,74.9176087 72.1312996,73.4476101 67.7201584,73.1209437 L51.3825981,73.1209437 L51.3825981,105.78758 L2.36991727,56.7876257 L51.3825981,7.78767146 Z M100.395279,200.520825 C89.7758647,200.520825 80.7902066,209.50415 80.7902066,220.120806 C80.7902066,230.737463 89.6124891,239.720788 100.395279,239.720788 C111.014693,239.720788 120.000351,230.737463 120.000351,220.120806 C120.000351,209.50415 111.014693,200.520825 100.395279,200.520825 Z" id="Combined-Shape"></path>
            <path d="M59.4406302,5.22839411 L59.4406302,37.8950302 L75.7781904,37.8950302 C88.5214874,38.3850298 99.6310284,43.6116916 109.433565,53.2483492 C119.236101,62.8850069 124.300744,74.1549963 124.790871,86.8949844 L124.790871,189.468222 C137.5804,196.832916 143.815333,211.876932 139.983785,226.126588 C136.152238,240.376244 123.212628,250.267152 108.453311,250.22828 C93.6939942,250.267152 80.7543841,240.376244 76.9228365,226.126588 C73.0912888,211.876932 79.3262215,196.832916 92.1157507,189.468222 L92.1157507,86.8949844 C91.9523751,82.4849886 90.4819947,78.8916586 87.051107,75.624995 C83.6202194,72.3583314 80.1893317,70.8883327 75.7781904,70.5616664 L59.4406302,70.5616664 L59.4406302,103.228303 L10.4279493,54.2283483 L59.4406302,5.22839411 Z M108.453311,197.961547 C97.8338968,197.961547 88.8482386,206.944872 88.8482386,217.561529 C88.8482386,228.178186 97.6705212,237.161511 108.453311,237.161511 C119.072725,237.161511 128.058383,228.178186 128.058383,217.561529 C128.058383,206.944872 119.072725,197.961547 108.453311,197.961547 Z" id="Combined-Shape" transform="translate(75.765510, 127.728394) rotate(5.000000) translate(-75.765510, -127.728394) "></path>
        </g>
        <g id="borders" transform="translate(105.954962, 22.000000)" fill-rule="nonzero" stroke="#000000" stroke-opacity="0.25">
            <path d="M51.3825981,7.78767146 L51.3825981,40.4543076 L67.7201584,40.4543076 C80.4634554,40.9443071 91.5729964,46.1709689 101.375533,55.8076266 C111.178069,65.4442842 116.242712,76.7142737 116.732839,89.4542618 L116.732839,192.027499 C129.522368,199.392193 135.757301,214.436209 131.925753,228.685866 C128.094206,242.935522 115.154596,252.826429 100.395279,252.787557 C85.6359622,252.826429 72.6963521,242.935522 68.8648044,228.685866 C65.0332568,214.436209 71.2681894,199.392193 84.0577186,192.027499 L84.0577186,89.4542618 C83.894343,85.0442659 82.4239626,81.4509359 78.9930749,78.1842723 C75.5621873,74.9176087 72.1312996,73.4476101 67.7201584,73.1209437 L51.3825981,73.1209437 L51.3825981,105.78758 L2.36991727,56.7876257 L51.3825981,7.78767146 Z M100.395279,200.520825 C89.7758647,200.520825 80.7902066,209.50415 80.7902066,220.120806 C80.7902066,230.737463 89.6124891,239.720788 100.395279,239.720788 C111.014693,239.720788 120.000351,230.737463 120.000351,220.120806 C120.000351,209.50415 111.014693,200.520825 100.395279,200.520825 Z" id="Combined-Shape"></path>
            <path d="M59.4406302,5.22839411 L59.4406302,37.8950302 L75.7781904,37.8950302 C88.5214874,38.3850298 99.6310284,43.6116916 109.433565,53.2483492 C119.236101,62.8850069 124.300744,74.1549963 124.790871,86.8949844 L124.790871,189.468222 C137.5804,196.832916 143.815333,211.876932 139.983785,226.126588 C136.152238,240.376244 123.212628,250.267152 108.453311,250.22828 C93.6939942,250.267152 80.7543841,240.376244 76.9228365,226.126588 C73.0912888,211.876932 79.3262215,196.832916 92.1157507,189.468222 L92.1157507,86.8949844 C91.9523751,82.4849886 90.4819947,78.8916586 87.051107,75.624995 C83.6202194,72.3583314 80.1893317,70.8883327 75.7781904,70.5616664 L59.4406302,70.5616664 L59.4406302,103.228303 L10.4279493,54.2283483 L59.4406302,5.22839411 Z M108.453311,197.961547 C97.8338968,197.961547 88.8482386,206.944872 88.8482386,217.561529 C88.8482386,228.178186 97.6705212,237.161511 108.453311,237.161511 C119.072725,237.161511 128.058383,228.178186 128.058383,217.561529 C128.058383,206.944872 119.072725,197.961547 108.453311,197.961547 Z" id="Combined-Shape" transform="translate(75.765510, 127.728394) rotate(5.000000) translate(-75.765510, -127.728394) "></path>
        </g>
    </g>
</svg>