<?xml version="1.0" encoding="UTF-8"?>
<svg width="300px" height="300px" viewBox="0 0 300 300" version="1.1" xmlns="http://www.w3.org/2000/svg" xmlns:xlink="http://www.w3.org/1999/xlink">
    <title>achievement-pull_requests-50</title>
    <g id="achievement-pull_requests-50" stroke="none" stroke-width="1" fill="none" fill-rule="evenodd">
        <g id="50" transform="translate(191.406250, 4.710938)" fill="#0000FF" fill-rule="nonzero" stroke="#000000" stroke-opacity="0.247633714" stroke-width="2">
            <path d="M45.1914062,2.41601562 L45.1914062,12.2324219 L16.3870011,12.2324219 L13.3366482,30.8278424 C16.3422279,28.7604243 18.5877869,27.4278203 20.0743693,26.8653006 C21.9973931,26.1519208 24.3404445,25.8046875 27.0996094,25.8046875 C32.7029765,25.8046875 37.5901428,27.6884515 41.7614528,31.4550821 C45.9350727,35.2237987 47.9746094,40.7216799 47.9746094,47.9003906 C47.9746094,54.2077365 45.9488849,59.8395835 41.9011691,64.797251 C37.8745323,69.7291006 31.8318998,72.1445312 23.828125,72.1445312 C17.3560539,72.1445312 12.0296435,70.4306849 7.86731452,66.9568615 C3.97060099,63.7047171 1.72896585,59.1581892 1.09502583,53.34375 L13.0488939,53.34375 C13.681256,56.2014112 14.7828129,58.4262779 16.3161954,60.039524 C18.0443686,61.8577062 20.5480461,62.8164062 23.8769531,62.8164062 C27.6902167,62.8164063 30.5742634,61.447876 32.5646287,58.7761244 C34.4891589,56.192746 35.4726562,52.9470572 35.4726562,49.0234375 C35.4726562,45.1844373 34.5572666,41.9491444 32.7606208,39.3060019 C30.8909355,36.5554072 27.997127,35.1328125 24.0234375,35.1328125 C22.2051603,35.1328125 20.6333098,35.3670671 19.3052186,35.8214141 C17.0687625,36.6224234 15.3453363,38.0402425 14.126402,40.085424 L3.32608348,39.5791591 L8.05846879,2.41601562 L45.1914062,2.41601562 Z" id="Path"></path>
            <path d="M80.5175781,1 C84.8481495,1 88.5382263,1.74920275 91.580676,3.27433819 C94.5701959,4.77294072 96.9234047,7.02286195 98.642654,10.0161828 C102.189856,16.2477546 103.931641,25.1068054 103.931641,36.5722656 C103.931641,48.0355522 102.182878,56.8773525 98.6203018,63.0759156 C96.9073954,66.0562191 94.5605819,68.2936593 91.5759521,69.7840536 C88.5370992,71.3015245 84.8485995,72.046875 80.5175781,72.046875 C76.1865568,72.046875 72.498057,71.3015245 69.4592041,69.7840536 C66.4745743,68.2936593 64.1277608,66.0562191 62.4148544,63.0759156 C58.8522782,56.8773525 57.1035156,48.0355522 57.1035156,36.5722656 C57.1035156,25.1075949 58.8530023,16.2490405 62.4159577,10.017863 C64.129073,7.02183182 66.4760059,4.77238902 69.4610445,3.27410708 C72.4993917,1.74906796 76.1872998,1 80.5175781,1 Z M80.5175781,10.4746094 C78.2046351,10.4746094 76.2926401,11.0678734 74.7662109,12.2126953 C73.2515684,13.3486772 72.1045071,15.0403767 71.36353,17.3175258 C70.0070965,21.4860777 69.3125,27.9020047 69.3125,36.5722656 C69.3125,44.8407876 70.0033837,51.1632116 71.359143,55.5446288 C72.0965197,57.9276146 73.2397612,59.6977981 74.7469456,60.8865001 C76.2784879,62.0944129 78.1968623,62.71875 80.5175781,62.71875 C82.8405713,62.71875 84.7559218,62.0910151 86.2797181,60.8774527 C87.7787031,59.6836503 88.9096889,57.9059994 89.6295029,55.5126178 C90.9197093,51.1458071 91.5761719,44.8354188 91.5761719,36.5722656 C91.5761719,27.9068592 90.9077806,21.49414 89.601671,17.3278158 C88.886653,15.0469988 87.757452,13.3529778 86.2540774,12.2152889 C84.7398053,11.0693533 82.8330483,10.4746094 80.5175781,10.4746094 Z" id="Shape"></path>
        </g>
        <path d="M90.3248795,82.2811557 C90.3248795,64.1511726 75.7844508,49.6144047 57.6497589,49.6144047 C42.8904422,49.5755327 29.9508321,59.4664402 26.1192844,73.7160964 C22.2877368,87.9657527 28.5226695,103.009769 41.3121986,110.374463 L41.3121986,217.521029 C28.5226695,224.885723 22.2877368,239.929739 26.1192844,254.179396 C29.9508321,268.429052 42.8904422,278.319959 57.6497589,278.281087 C72.4090757,278.319959 85.3486857,268.429052 89.1802334,254.179396 C93.0117811,239.929739 86.7768484,224.885723 73.9873192,217.521029 L73.9873192,110.374463 C83.6264797,104.821135 90.3248795,94.367811 90.3248795,82.2811557 Z M77.2548312,245.614336 C77.2548312,256.394326 68.2691731,265.214318 57.6497589,265.214318 C47.0303447,265.214318 38.0446866,256.230993 38.0446866,245.614336 C38.0446866,234.99768 47.0303447,226.014355 57.6497589,226.014355 C68.2691731,226.014355 77.2548312,234.99768 77.2548312,245.614336 Z M57.6497589,101.881137 C46.8669691,101.881137 38.0446866,92.8978124 38.0446866,82.2811557 C38.0446866,71.6644989 47.0303447,62.681174 57.6497589,62.681174 C68.2691731,62.681174 77.2548312,71.6644989 77.2548312,82.2811557 C77.2548312,92.8978124 68.2691731,101.881137 57.6497589,101.881137 Z" id="Shape" stroke-opacity="0.25" stroke="#000000" fill-opacity="0.75" fill="#0000FF" fill-rule="nonzero"></path>
        <g id="shapes" transform="translate(85.404943, 15.000000)" fill="#0000FF" fill-opacity="0.3" fill-rule="nonzero">
            <path d="M53.9326171,18.2812015 L53.9326171,50.9478376 L70.2701773,50.9478376 C83.0134743,51.4378371 94.1230153,56.6644989 103.925551,66.3011566 C113.728088,75.9378142 118.792731,87.2078037 119.282858,99.9477918 L119.282858,202.521029 C132.072387,209.885723 138.30732,224.929739 134.475772,239.179396 C130.644225,253.429052 117.704615,263.319959 102.945298,263.281087 C88.1859811,263.319959 75.2463711,253.429052 71.4148234,239.179396 C67.5832757,224.929739 73.8182084,209.885723 86.6077376,202.521029 L86.6077376,99.9477918 C86.444362,95.5377959 84.9739816,91.9444659 81.5430939,88.6778023 C78.1122063,85.4111387 74.6813186,83.9411401 70.2701773,83.6144737 L53.9326171,83.6144737 L53.9326171,116.28111 L4.91993624,67.2811557 L53.9326171,18.2812015 Z M102.945298,211.014355 C92.3258837,211.014355 83.3402255,219.99768 83.3402255,230.614336 C83.3402255,241.230993 92.1625081,250.214318 102.945298,250.214318 C113.564712,250.214318 122.55037,241.230993 122.55037,230.614336 C122.55037,219.99768 113.564712,211.014355 102.945298,211.014355 Z" id="Combined-Shape"></path>
            <path d="M61.9906491,15.7219241 L61.9906491,48.3885603 L78.3282094,48.3885603 C91.0715064,48.8785598 102.181047,54.1052216 111.983584,63.7418792 C121.78612,73.3785369 126.850763,84.6485264 127.34089,97.3885144 L127.34089,199.961752 C140.130419,207.326446 146.365352,222.370462 142.533804,236.620118 C138.702257,250.869774 125.762647,260.760682 111.00333,260.72181 C96.2440132,260.760682 83.3044031,250.869774 79.4728555,236.620118 C75.6413078,222.370462 81.8762405,207.326446 94.6657697,199.961752 L94.6657697,97.3885144 C94.5023941,92.9785186 93.0320136,89.3851886 89.601126,86.118525 C86.1702383,82.8518614 82.7393507,81.3818627 78.3282094,81.0551964 L61.9906491,81.0551964 L61.9906491,113.721833 L12.9779683,64.7218783 L61.9906491,15.7219241 Z M111.00333,208.455077 C100.383916,208.455077 91.3982576,217.438402 91.3982576,228.055059 C91.3982576,238.671716 100.22054,247.655041 111.00333,247.655041 C121.622744,247.655041 130.608402,238.671716 130.608402,228.055059 C130.608402,217.438402 121.622744,208.455077 111.00333,208.455077 Z" id="Combined-Shape" transform="translate(78.315529, 138.221924) rotate(5.000000) translate(-78.315529, -138.221924) "></path>
            <path d="M70.2410737,13.8746894 L70.2410737,46.5413255 L86.5786339,46.5413255 C99.321931,47.031325 110.431472,52.2579868 120.234008,61.8946445 C130.036544,71.5313021 135.101188,82.8012916 135.591315,95.5412797 L135.591315,198.114517 C148.380844,205.479211 154.615777,220.523227 150.784229,234.772883 C146.952681,249.02254 134.013071,258.913447 119.253754,258.874575 C104.494438,258.913447 91.5548277,249.02254 87.72328,234.772883 C83.8917324,220.523227 90.126665,205.479211 102.916194,198.114517 L102.916194,95.5412797 C102.752819,91.1312838 101.282438,87.5379538 97.8515505,84.2712902 C94.4206629,81.0046266 90.9897752,79.534628 86.5786339,79.2079616 L70.2410737,79.2079616 L70.2410737,111.874598 L21.2283929,62.8746436 L70.2410737,13.8746894 Z M119.253754,206.607843 C108.63434,206.607843 99.6486822,215.591167 99.6486822,226.207824 C99.6486822,236.824481 108.470965,245.807806 119.253754,245.807806 C129.873169,245.807806 138.858827,236.824481 138.858827,226.207824 C138.858827,215.591167 129.873169,206.607843 119.253754,206.607843 Z" id="Combined-Shape" transform="translate(86.565953, 136.374689) rotate(10.000000) translate(-86.565953, -136.374689) "></path>
            <path d="M78.4916905,12.7365187 L78.4916905,45.4031548 L94.8292507,45.4031548 C107.572548,45.8931544 118.682089,51.1198161 128.484625,60.7564738 C138.287161,70.3931315 143.351805,81.6631209 143.841932,94.403109 L143.841932,196.976346 C156.631461,204.34104 162.866393,219.385056 159.034846,233.634713 C155.203298,247.884369 142.263688,257.775277 127.504371,257.736405 C112.745055,257.775277 99.8054445,247.884369 95.9738968,233.634713 C92.1423491,219.385056 98.3772818,204.34104 111.166811,196.976346 L111.166811,94.403109 C111.003435,89.9931131 109.533055,86.3997832 106.102167,83.1331195 C102.67128,79.8664559 99.240392,78.3964573 94.8292507,78.0697909 L78.4916905,78.0697909 L78.4916905,110.736427 L29.4790096,61.7364729 L78.4916905,12.7365187 Z M127.504371,205.469672 C116.884957,205.469672 107.899299,214.452997 107.899299,225.069654 C107.899299,235.68631 116.721581,244.669635 127.504371,244.669635 C138.123785,244.669635 147.109444,235.68631 147.109444,225.069654 C147.109444,214.452997 138.123785,205.469672 127.504371,205.469672 Z" id="Combined-Shape" transform="translate(94.816570, 135.236519) rotate(15.000000) translate(-94.816570, -135.236519) "></path>
        </g>
        <g id="borders" transform="translate(85.404943, 15.000000)" fill-rule="nonzero" stroke="#000000" stroke-opacity="0.25">
            <path d="M53.9326171,18.2812015 L53.9326171,50.9478376 L70.2701773,50.9478376 C83.0134743,51.4378371 94.1230153,56.6644989 103.925551,66.3011566 C113.728088,75.9378142 118.792731,87.2078037 119.282858,99.9477918 L119.282858,202.521029 C132.072387,209.885723 138.30732,224.929739 134.475772,239.179396 C130.644225,253.429052 117.704615,263.319959 102.945298,263.281087 C88.1859811,263.319959 75.2463711,253.429052 71.4148234,239.179396 C67.5832757,224.929739 73.8182084,209.885723 86.6077376,202.521029 L86.6077376,99.9477918 C86.444362,95.5377959 84.9739816,91.9444659 81.5430939,88.6778023 C78.1122063,85.4111387 74.6813186,83.9411401 70.2701773,83.6144737 L53.9326171,83.6144737 L53.9326171,116.28111 L4.91993624,67.2811557 L53.9326171,18.2812015 Z M102.945298,211.014355 C92.3258837,211.014355 83.3402255,219.99768 83.3402255,230.614336 C83.3402255,241.230993 92.1625081,250.214318 102.945298,250.214318 C113.564712,250.214318 122.55037,241.230993 122.55037,230.614336 C122.55037,219.99768 113.564712,211.014355 102.945298,211.014355 Z" id="Combined-Shape"></path>
            <path d="M61.9906491,15.7219241 L61.9906491,48.3885603 L78.3282094,48.3885603 C91.0715064,48.8785598 102.181047,54.1052216 111.983584,63.7418792 C121.78612,73.3785369 126.850763,84.6485264 127.34089,97.3885144 L127.34089,199.961752 C140.130419,207.326446 146.365352,222.370462 142.533804,236.620118 C138.702257,250.869774 125.762647,260.760682 111.00333,260.72181 C96.2440132,260.760682 83.3044031,250.869774 79.4728555,236.620118 C75.6413078,222.370462 81.8762405,207.326446 94.6657697,199.961752 L94.6657697,97.3885144 C94.5023941,92.9785186 93.0320136,89.3851886 89.601126,86.118525 C86.1702383,82.8518614 82.7393507,81.3818627 78.3282094,81.0551964 L61.9906491,81.0551964 L61.9906491,113.721833 L12.9779683,64.7218783 L61.9906491,15.7219241 Z M111.00333,208.455077 C100.383916,208.455077 91.3982576,217.438402 91.3982576,228.055059 C91.3982576,238.671716 100.22054,247.655041 111.00333,247.655041 C121.622744,247.655041 130.608402,238.671716 130.608402,228.055059 C130.608402,217.438402 121.622744,208.455077 111.00333,208.455077 Z" id="Combined-Shape" transform="translate(78.315529, 138.221924) rotate(5.000000) translate(-78.315529, -138.221924) "></path>
            <path d="M70.2410737,13.8746894 L70.2410737,46.5413255 L86.5786339,46.5413255 C99.321931,47.031325 110.431472,52.2579868 120.234008,61.8946445 C130.036544,71.5313021 135.101188,82.8012916 135.591315,95.5412797 L135.591315,198.114517 C148.380844,205.479211 154.615777,220.523227 150.784229,234.772883 C146.952681,249.02254 134.013071,258.913447 119.253754,258.874575 C104.494438,258.913447 91.5548277,249.02254 87.72328,234.772883 C83.8917324,220.523227 90.126665,205.479211 102.916194,198.114517 L102.916194,95.5412797 C102.752819,91.1312838 101.282438,87.5379538 97.8515505,84.2712902 C94.4206629,81.0046266 90.9897752,79.534628 86.5786339,79.2079616 L70.2410737,79.2079616 L70.2410737,111.874598 L21.2283929,62.8746436 L70.2410737,13.8746894 Z M119.253754,206.607843 C108.63434,206.607843 99.6486822,215.591167 99.6486822,226.207824 C99.6486822,236.824481 108.470965,245.807806 119.253754,245.807806 C129.873169,245.807806 138.858827,236.824481 138.858827,226.207824 C138.858827,215.591167 129.873169,206.607843 119.253754,206.607843 Z" id="Combined-Shape" transform="translate(86.565953, 136.374689) rotate(10.000000) translate(-86.565953, -136.374689) "></path>
            <path d="M78.4916905,12.7365187 L78.4916905,45.4031548 L94.8292507,45.4031548 C107.572548,45.8931544 118.682089,51.1198161 128.484625,60.7564738 C138.287161,70.3931315 143.351805,81.6631209 143.841932,94.403109 L143.841932,196.976346 C156.631461,204.34104 162.866393,219.385056 159.034846,233.634713 C155.203298,247.884369 142.263688,257.775277 127.504371,257.736405 C112.745055,257.775277 99.8054445,247.884369 95.9738968,233.634713 C92.1423491,219.385056 98.3772818,204.34104 111.166811,196.976346 L111.166811,94.403109 C111.003435,89.9931131 109.533055,86.3997832 106.102167,83.1331195 C102.67128,79.8664559 99.240392,78.3964573 94.8292507,78.0697909 L78.4916905,78.0697909 L78.4916905,110.736427 L29.4790096,61.7364729 L78.4916905,12.7365187 Z M127.504371,205.469672 C116.884957,205.469672 107.899299,214.452997 107.899299,225.069654 C107.899299,235.68631 116.721581,244.669635 127.504371,244.669635 C138.123785,244.669635 147.109444,235.68631 147.109444,225.069654 C147.109444,214.452997 138.123785,205.469672 127.504371,205.469672 Z" id="Combined-Shape" transform="translate(94.816570, 135.236519) rotate(15.000000) translate(-94.816570, -135.236519) "></path>
        </g>
    </g>
</svg>