<?xml version="1.0" encoding="UTF-8"?>
<svg width="300px" height="300px" viewBox="0 0 300 300" version="1.1" xmlns="http://www.w3.org/2000/svg" xmlns:xlink="http://www.w3.org/1999/xlink">
    <title>achievement-pull_request-1</title>
    <g id="achievement-pull_request-1" stroke="none" stroke-width="1" fill="none" fill-rule="evenodd" fill-opacity="0.75" stroke-opacity="0.25">
        <path d="M231.687801,211.239828 L231.687801,108.66659 C231.197675,95.9266022 226.133031,84.6566128 216.330495,75.0199551 C206.527959,65.3832975 195.418418,60.1566357 182.675121,59.6666361 L166.33756,59.6666361 L166.33756,27 L117.324879,75.9999542 L166.33756,124.999908 L166.33756,92.3332723 L182.675121,92.3332723 C187.086262,92.6599386 190.517149,94.1299372 193.948037,97.3966009 C197.378925,100.663264 198.849305,104.256594 199.012681,108.66659 L199.012681,211.239828 C186.223152,218.604522 179.988219,233.648538 183.819767,247.898194 C187.651314,262.14785 200.590924,272.038758 215.350241,271.999886 C230.109558,272.038758 243.049168,262.14785 246.880716,247.898194 C250.712263,233.648538 244.477331,218.604522 231.687801,211.239828 Z M215.350241,258.933117 C204.567451,258.933117 195.745169,249.949792 195.745169,239.333135 C195.745169,228.716478 204.730827,219.733153 215.350241,219.733153 C225.969655,219.733153 234.955313,228.716478 234.955313,239.333135 C234.955313,249.949792 225.969655,258.933117 215.350241,258.933117 Z M117.324879,75.9999542 C117.324879,57.8699711 102.784451,43.3332032 84.6497589,43.3332032 C69.8904422,43.2943312 56.9508321,53.1852387 53.1192844,67.434895 C49.2877368,81.6845512 55.5226695,96.7285674 68.3121986,104.093261 L68.3121986,211.239828 C55.5226695,218.604522 49.2877368,233.648538 53.1192844,247.898194 C56.9508321,262.14785 69.8904422,272.038758 84.6497589,271.999886 C99.4090757,272.038758 112.348686,262.14785 116.180233,247.898194 C120.011781,233.648538 113.776848,218.604522 100.987319,211.239828 L100.987319,104.093261 C110.62648,98.5399331 117.324879,88.0866096 117.324879,75.9999542 Z M104.254831,239.333135 C104.254831,250.113125 95.2691731,258.933117 84.6497589,258.933117 C74.0303447,258.933117 65.0446866,249.949792 65.0446866,239.333135 C65.0446866,228.716478 74.0303447,219.733153 84.6497589,219.733153 C95.2691731,219.733153 104.254831,228.716478 104.254831,239.333135 Z M84.6497589,95.5999359 C73.8669691,95.5999359 65.0446866,86.6166109 65.0446866,75.9999542 C65.0446866,65.3832975 74.0303447,56.3999725 84.6497589,56.3999725 C95.2691731,56.3999725 104.254831,65.3832975 104.254831,75.9999542 C104.254831,86.6166109 95.2691731,95.5999359 84.6497589,95.5999359 Z" id="Shape" stroke="#000000" fill="#07A700" fill-rule="nonzero"></path>
    </g>
</svg>